<svg xmlns="http://www.w3.org/2000/svg" viewBox="0 0 2886.47 1627.49"><defs><style>.cls-1{fill:#dceaff;}.cls-13,.cls-2{fill:#9bcc8f;}.cls-2,.cls-32{opacity:0.5;}.cls-3{fill:#f2ccaa;}.cls-4{fill:#f9ddbf;}.cls-5{fill:#ddaf8a;}.cls-6{fill:#fff2e6;}.cls-7{fill:#fff;}.cls-8{fill:#ed7d2b;}.cls-9{fill:#f49540;}.cls-10{fill:#dba579;}.cls-11{fill:#f7e6d7;}.cls-12{fill:#f4ddcb;}.cls-14{fill:#a8d29f;}.cls-15{fill:#ffb27d;}.cls-16{fill:#bc3f3f;}.cls-17{fill:#233862;}.cls-18{fill:#ed985f;}.cls-19{fill:#2c3a64;}.cls-20{fill:#2b478b;}.cls-21{fill:#f99746;}.cls-22{fill:#e8945b;}.cls-23{fill:#ecf3fe;}.cls-24{fill:#e58638;}.cls-25{fill:#d36c26;}.cls-26{fill:#d37129;}.cls-27,.cls-28{fill:#d86713;}.cls-27{opacity:0.4;}.cls-29{fill:#b64c41;}.cls-30{fill:#1c468a;}.cls-31,.cls-32{fill:#f8fcff;}.cls-33{fill:#82b378;}.cls-34{fill:#d36d1a;}.cls-35{fill:#ffa255;}.cls-36{fill:#a53d38;}.cls-37{fill:#ef9e67;}.cls-38{fill:#ffb93e;}.cls-39{fill:#ffa412;}.cls-40{fill:#163560;}.cls-41{fill:#466aa5;}.cls-42{fill:#ee9849;}.cls-43{fill:#d17a33;}.cls-44{fill:#d2e4ff;}.cls-45{fill:#912f2f;}.cls-46{fill:#578e9b;}.cls-47{fill:#74acbe;}.cls-48{fill:#ebf3fa;}.cls-49{fill:#b5453c;}.cls-50{fill:#f4a269;}.cls-51{fill:#c65447;}.cls-52{fill:#265caa;}.cls-53{fill:#1650a5;}.cls-54{fill:#efdece;}.cls-55{fill:#fcecdb;}.cls-56{fill:#dd6d22;}.cls-57{fill:#9e332e;}.cls-58{fill:#182e51;}.cls-59{fill:#73a567;}.cls-60{fill:#235187;}.cls-61{fill:#17467f;}.cls-62{fill:#0c2442;}</style></defs><g id="_ëîé_1" data-name="‘ëîé_1"><path class="cls-1" d="M3053.52,1619.69c-2,8.53-4.28,17.31-6.79,26.09-2.26,8.8-5.26,18.09-8.53,27.38-1.51,4.51-332.41,80.83-332.41,80.83l-87.36-.24h-782.3l-228.46-.26H1005.39l-251.57-.24H384.07a121.43,121.43,0,0,1-114.81-81.86c-1.45-4.2-2.79-8.17-4-11.79-6.9-21.38-14.49-45.92-22.22-73-3.8-13.3-7.63-27.23-11.43-41.7-3.73-14.3-7.45-29.12-11-44.44-.77-3.23-1.52-6.5-2.27-9.78-.36-1.57-.72-3.15-1.09-4.73,0,0,0-.06,0-.09-2.88-12.6-5.74-25.73-8.43-38.87-11.24-54.19-20.77-112.49-26.39-172.3-4.68-49.65-6.67-100.34-4.74-150.56.5-11.81,1.26-23.6,2-35.4,2-25.11,5-50.21,9.3-74.56,2.75-16.57,6.27-33.14,10.28-49.21,9.8-39.42,23.1-77.07,40.67-112.72,6.29-12.3,12.81-24.35,20.09-36.15,16.32-26.87,32.89-52,49.72-75.58H310c8.8-12.55,17.58-24.34,26.37-35.65,32.88-42.67,66.28-79.33,99.92-111,413-386.37,886.47-13.56,1179.47-272.9,286.45-253.31,822.46-257.09,1062.22-23.34,4.52,4.51,9.29,9,13.8,14.05A401.66,401.66,0,0,1,2743.14,379a378.81,378.81,0,0,1,18.72,34.69c34.4,72.56,47.12,158.79,30.61,258.47q-4.72,28.57-12.73,58.63c-.12.48-.25,1-.38,1.45-10.37,38.18-24.72,77.92-43.48,119.82q-1.83,4.1-3.72,8.22l-6,12.81c-46.94,98.19-32.55,168.17,9.75,227.56,16.74,23.52,37.87,45.38,61.3,66.67,51,46.45,112.48,90.13,163.69,142.35,6.77,7,13.3,14.06,19.83,21.35q4,4.68,8,9.43c6.64,8,13,16.24,19.14,24.71.35.5.71,1,1.05,1.51,24,34.28,42,72.67,50,117.37.12.61.22,1.22.33,1.83,0,0,0,.06,0,.09C3065.91,1525.17,3064.93,1569.27,3053.52,1619.69Z" transform="translate(-176.91 -126.5)"/><path class="cls-2" d="M1014.17,1052.89s-151.84-19.49-210.46,35.61-28,122.6-119.55,120.08-143.95,130.82-149,204.32,28.57,81.95,28.57,81.95h471.48Z" transform="translate(-176.91 -126.5)"/><path class="cls-3" d="M3018.47,1484.65H1016.05V730.74H2779.74c-.12.48-.25,1-.38,1.45-10.37,38.18-24.72,77.92-43.48,119.82q-1.83,4.1-3.72,8.22l-6,12.81c-46.94,98.19-32.55,168.17,9.75,227.56,16.74,23.52,37.87,45.38,61.3,66.67,51,46.45,112.48,90.13,163.69,142.35,6.77,7,13.3,14.06,19.83,21.35q4,4.68,8,9.43c6.64,8,13,16.24,19.14,24.71.35.5.71,1,1.05,1.51Z" transform="translate(-176.91 -126.5)"/><rect class="cls-4" x="1089.57" y="604.24" width="203.94" height="734.57"/><rect class="cls-5" x="819.73" y="1254.41" width="1971.66" height="105.59"/><path class="cls-4" d="M2726.13,873c-46.94,98.19-32.55,168.17,9.75,227.56v364.71h-204V730.74h204V852q-1.83,4.1-3.72,8.22Z" transform="translate(-176.91 -126.5)"/><rect class="cls-4" x="1552.59" y="500.13" width="487.32" height="849.49"/><rect class="cls-6" x="1409.88" y="984.28" width="68.24" height="24.16"/><rect class="cls-6" x="1425.19" y="1008.44" width="37.62" height="349.71"/><path class="cls-5" d="M1602.1,1150.73a20.74,20.74,0,0,1,18.8-9.87c14.43.53,18.81,9.87,18.81,9.87v-15.79H1602.1Z" transform="translate(-176.91 -126.5)"/><rect class="cls-5" x="1409.88" y="984.25" width="68.24" height="4.21"/><rect class="cls-6" x="1601.57" y="984.28" width="68.24" height="24.16"/><rect class="cls-6" x="1616.88" y="1008.44" width="37.62" height="349.71"/><path class="cls-5" d="M1793.79,1150.73a20.75,20.75,0,0,1,18.81-9.87c14.42.53,18.8,9.87,18.8,9.87v-15.79h-37.61Z" transform="translate(-176.91 -126.5)"/><rect class="cls-5" x="1601.57" y="984.25" width="68.24" height="4.21"/><rect class="cls-6" x="1928.53" y="984.28" width="68.24" height="24.16"/><rect class="cls-6" x="1943.84" y="1008.44" width="37.62" height="349.71"/><path class="cls-5" d="M2120.75,1150.73a20.75,20.75,0,0,1,18.81-9.87c14.42.53,18.8,9.87,18.8,9.87v-15.79h-37.61Z" transform="translate(-176.91 -126.5)"/><rect class="cls-5" x="1928.53" y="984.25" width="68.24" height="4.21"/><rect class="cls-6" x="2140.09" y="984.28" width="68.24" height="24.16"/><rect class="cls-6" x="2155.4" y="1008.44" width="37.62" height="349.71"/><path class="cls-5" d="M2332.31,1150.73a20.75,20.75,0,0,1,18.81-9.87c14.42.53,18.8,9.87,18.8,9.87v-15.79h-37.61Z" transform="translate(-176.91 -126.5)"/><rect class="cls-5" x="2140.09" y="984.25" width="68.24" height="4.21"/><path class="cls-3" d="M1797.55,1082.08H1805a74.24,74.24,0,0,1,74.24,74.24v200.36a0,0,0,0,1,0,0H1718.75a0,0,0,0,1,0,0v-195.8A78.79,78.79,0,0,1,1797.55,1082.08Z"/><path class="cls-5" d="M963.28,723.78h7.2a35.77,35.77,0,0,1,35.77,35.77v90.62a0,0,0,0,1,0,0H925.32a0,0,0,0,1,0,0V761.74A38,38,0,0,1,963.28,723.78Z"/><path class="cls-7" d="M1147.39,847.39h-7.2a40.9,40.9,0,0,0-40.86,40.85v91.32h86.72V886.05A38.7,38.7,0,0,0,1147.39,847.39Zm-7.2,5.78h7.2a32.92,32.92,0,0,1,32.88,32.88v87.73h-75.16V888.24c0-.33,0-.66,0-1A35.13,35.13,0,0,1,1140.19,853.17Z" transform="translate(-176.91 -126.5)"/><rect class="cls-7" x="925.95" y="760.76" width="78.99" height="5.46"/><rect class="cls-7" x="962.79" y="763.49" width="5.31" height="86.22"/><path class="cls-5" d="M1122.41,817s17.28-5.8,44.07,0l-9.32,23.17a108.41,108.41,0,0,0-25.36,0Z" transform="translate(-176.91 -126.5)"/><path class="cls-5" d="M1128.39,840.68,1118.31,821s-11,2.25-15,6.54l16.74,15.19Z" transform="translate(-176.91 -126.5)"/><path class="cls-5" d="M1160.45,840.78l9.18-19.44s9.57.95,15,6.54L1168,842.75Z" transform="translate(-176.91 -126.5)"/><path class="cls-5" d="M1186,723.78h7.2A35.77,35.77,0,0,1,1229,759.55v90.62a0,0,0,0,1,0,0h-80.94a0,0,0,0,1,0,0V761.74A38,38,0,0,1,1186,723.78Z"/><path class="cls-7" d="M1370.15,847.39h-7.21a40.89,40.89,0,0,0-40.85,40.85v91.32h86.72V886.05A38.71,38.71,0,0,0,1370.15,847.39Zm-7.21,5.78h7.21A32.92,32.92,0,0,1,1403,886.05v87.73h-75.16V888.24c0-.33,0-.66,0-1A35.12,35.12,0,0,1,1362.94,853.17Z" transform="translate(-176.91 -126.5)"/><rect class="cls-7" x="1148.7" y="760.76" width="78.99" height="5.46"/><rect class="cls-7" x="1185.54" y="763.49" width="5.31" height="86.22"/><path class="cls-5" d="M1345.16,817s17.29-5.8,44.07,0l-9.31,23.17a108.51,108.51,0,0,0-25.37,0Z" transform="translate(-176.91 -126.5)"/><path class="cls-5" d="M1351.14,840.68,1341.06,821s-11,2.25-15,6.54l16.73,15.19Z" transform="translate(-176.91 -126.5)"/><path class="cls-5" d="M1383.21,840.78l9.18-19.44s9.56.95,15,6.54l-16.6,14.87Z" transform="translate(-176.91 -126.5)"/><path class="cls-5" d="M963.28,1045.1h7.2a35.77,35.77,0,0,1,35.77,35.77v90.62a0,0,0,0,1,0,0H925.32a0,0,0,0,1,0,0v-88.43A38,38,0,0,1,963.28,1045.1Z"/><path class="cls-7" d="M1147.39,1168.71h-7.2a40.9,40.9,0,0,0-40.86,40.85v91.32h86.72v-93.51A38.7,38.7,0,0,0,1147.39,1168.71Zm-7.2,5.78h7.2a32.92,32.92,0,0,1,32.88,32.88v87.73h-75.16v-85.54c0-.33,0-.66,0-1A35.13,35.13,0,0,1,1140.19,1174.49Z" transform="translate(-176.91 -126.5)"/><rect class="cls-7" x="925.95" y="1082.08" width="78.99" height="5.46"/><rect class="cls-7" x="962.79" y="1084.81" width="5.31" height="86.22"/><path class="cls-5" d="M1122.41,1138.27s17.28-5.8,44.07,0l-9.32,23.17a108.41,108.41,0,0,0-25.36,0Z" transform="translate(-176.91 -126.5)"/><path class="cls-5" d="M1128.39,1162l-10.08-19.66s-11,2.25-15,6.54l16.74,15.19Z" transform="translate(-176.91 -126.5)"/><path class="cls-5" d="M1160.45,1162.1l9.18-19.44s9.57,1,15,6.54l-16.6,14.87Z" transform="translate(-176.91 -126.5)"/><path class="cls-5" d="M1186,1045.1h7.2a35.77,35.77,0,0,1,35.77,35.77v90.62a0,0,0,0,1,0,0h-80.94a0,0,0,0,1,0,0v-88.43A38,38,0,0,1,1186,1045.1Z"/><path class="cls-7" d="M1370.15,1168.71h-7.21a40.89,40.89,0,0,0-40.85,40.85v91.32h86.72v-93.51A38.71,38.71,0,0,0,1370.15,1168.71Zm-7.21,5.78h7.21a32.92,32.92,0,0,1,32.88,32.88v87.73h-75.16v-85.54c0-.33,0-.66,0-1A35.12,35.12,0,0,1,1362.94,1174.49Z" transform="translate(-176.91 -126.5)"/><rect class="cls-7" x="1148.7" y="1082.08" width="78.99" height="5.46"/><rect class="cls-7" x="1185.54" y="1084.81" width="5.31" height="86.22"/><path class="cls-5" d="M1345.16,1138.27s17.29-5.8,44.07,0l-9.31,23.17a108.51,108.51,0,0,0-25.37,0Z" transform="translate(-176.91 -126.5)"/><path class="cls-5" d="M1351.14,1162l-10.08-19.66s-11,2.25-15,6.54l16.73,15.19Z" transform="translate(-176.91 -126.5)"/><path class="cls-5" d="M1383.21,1162.1l9.18-19.44s9.56,1,15,6.54l-16.6,14.87Z" transform="translate(-176.91 -126.5)"/><path class="cls-5" d="M1422.68,723.78h7.2a35.77,35.77,0,0,1,35.77,35.77v90.62a0,0,0,0,1,0,0h-80.94a0,0,0,0,1,0,0V761.74A38,38,0,0,1,1422.68,723.78Z"/><path class="cls-7" d="M1606.8,847.39h-7.21a40.9,40.9,0,0,0-40.85,40.85v91.32h86.72V886.05A38.71,38.71,0,0,0,1606.8,847.39Zm-7.21,5.78h7.21a32.92,32.92,0,0,1,32.88,32.88v87.73h-75.16V888.24c0-.33,0-.66,0-1A35.12,35.12,0,0,1,1599.59,853.17Z" transform="translate(-176.91 -126.5)"/><rect class="cls-7" x="1385.35" y="760.76" width="78.99" height="5.46"/><rect class="cls-7" x="1422.19" y="763.49" width="5.31" height="86.22"/><path class="cls-5" d="M1581.81,817s17.29-5.8,44.07,0l-9.31,23.17a108.51,108.51,0,0,0-25.37,0Z" transform="translate(-176.91 -126.5)"/><path class="cls-5" d="M1587.79,840.68,1577.71,821s-11,2.25-15,6.54l16.73,15.19Z" transform="translate(-176.91 -126.5)"/><path class="cls-5" d="M1619.86,840.78l9.18-19.44s9.56.95,15,6.54l-16.59,14.87Z" transform="translate(-176.91 -126.5)"/><path class="cls-5" d="M1795.68,643.34h9.5a47.16,47.16,0,0,1,47.16,47.16V810a0,0,0,0,1,0,0H1745.63a0,0,0,0,1,0,0V693.4A50.06,50.06,0,0,1,1795.68,643.34Z"/><path class="cls-7" d="M1982.09,766h-9.5a53.93,53.93,0,0,0-53.87,53.86V940.3h114.34V817A51,51,0,0,0,1982.09,766Zm-9.5,7.62h9.5A43.4,43.4,0,0,1,2025.44,817V932.68h-99.1V819.9c0-.43,0-.86,0-1.29A46.29,46.29,0,0,1,1972.59,773.66Z" transform="translate(-176.91 -126.5)"/><rect class="cls-7" x="1746.46" y="692.11" width="104.15" height="7.2"/><rect class="cls-7" x="1795.03" y="695.71" width="7" height="113.67"/><path class="cls-5" d="M1896.14,687.27h7.05a35,35,0,0,1,35,35V811a0,0,0,0,1,0,0H1859a0,0,0,0,1,0,0V724.43A37.16,37.16,0,0,1,1896.14,687.27Z"/><path class="cls-7" d="M2080.09,810.94H2073a40,40,0,0,0-40,40V940.3h84.87V848.78A37.88,37.88,0,0,0,2080.09,810.94ZM2073,816.6h7.05a32.21,32.21,0,0,1,32.18,32.18v85.86h-73.55V850.93c0-.32,0-.64,0-1A34.37,34.37,0,0,1,2073,816.6Z" transform="translate(-176.91 -126.5)"/><rect class="cls-7" x="1859.6" y="723.47" width="77.31" height="5.34"/><rect class="cls-7" x="1895.65" y="726.14" width="5.2" height="84.38"/><path class="cls-5" d="M1696.93,687.27H1704a35,35,0,0,1,35,35V811a0,0,0,0,1,0,0h-79.21a0,0,0,0,1,0,0V724.43A37.16,37.16,0,0,1,1696.93,687.27Z"/><path class="cls-7" d="M1880.89,810.94h-7.05a40,40,0,0,0-40,40V940.3h84.87V848.78A37.87,37.87,0,0,0,1880.89,810.94Zm-7.05,5.66h7.05a32.22,32.22,0,0,1,32.18,32.18v85.86h-73.56V850.93c0-.32,0-.64,0-1A34.37,34.37,0,0,1,1873.84,816.6Z" transform="translate(-176.91 -126.5)"/><rect class="cls-7" x="1660.39" y="723.47" width="77.31" height="5.34"/><rect class="cls-7" x="1696.45" y="726.14" width="5.2" height="84.38"/><path class="cls-5" d="M2195.68,723.78h7.2a35.77,35.77,0,0,1,35.77,35.77v90.62a0,0,0,0,1,0,0h-80.94a0,0,0,0,1,0,0V761.74A38,38,0,0,1,2195.68,723.78Z"/><path class="cls-7" d="M2379.79,847.39h-7.21a40.9,40.9,0,0,0-40.85,40.85v91.32h86.72V886.05A38.7,38.7,0,0,0,2379.79,847.39Zm-7.21,5.78h7.21a32.92,32.92,0,0,1,32.88,32.88v87.73h-75.16V888.24c0-.33,0-.66,0-1A35.12,35.12,0,0,1,2372.58,853.17Z" transform="translate(-176.91 -126.5)"/><rect class="cls-7" x="2158.34" y="760.76" width="78.99" height="5.46"/><rect class="cls-7" x="2195.18" y="763.49" width="5.31" height="86.22"/><path class="cls-5" d="M2354.8,817s17.29-5.8,44.07,0l-9.31,23.17a108.51,108.51,0,0,0-25.37,0Z" transform="translate(-176.91 -126.5)"/><path class="cls-5" d="M2360.78,840.68,2350.71,821s-11,2.25-15,6.54l16.73,15.19Z" transform="translate(-176.91 -126.5)"/><path class="cls-5" d="M2392.85,840.78l9.18-19.44s9.57.95,15,6.54l-16.6,14.87Z" transform="translate(-176.91 -126.5)"/><path class="cls-5" d="M2456,723.78h7.2A35.77,35.77,0,0,1,2499,759.54v90.62a0,0,0,0,1,0,0H2418a0,0,0,0,1,0,0V761.74A38,38,0,0,1,2456,723.78Z"/><path class="cls-7" d="M2640.12,847.39h-7.2a40.9,40.9,0,0,0-40.86,40.85v91.32h86.72V886.05A38.7,38.7,0,0,0,2640.12,847.39Zm-7.2,5.78h7.2A32.92,32.92,0,0,1,2673,886.05v87.73h-75.16V888.24c0-.33,0-.66,0-1A35.13,35.13,0,0,1,2632.92,853.17Z" transform="translate(-176.91 -126.5)"/><rect class="cls-7" x="2418.68" y="760.76" width="78.99" height="5.46"/><rect class="cls-7" x="2455.52" y="763.49" width="5.31" height="86.22"/><path class="cls-5" d="M2615.13,817s17.29-5.8,44.08,0l-9.32,23.17a108.41,108.41,0,0,0-25.36,0Z" transform="translate(-176.91 -126.5)"/><path class="cls-5" d="M2621.11,840.68,2611,821s-11,2.25-15,6.54l16.74,15.19Z" transform="translate(-176.91 -126.5)"/><path class="cls-5" d="M2653.18,840.78l9.18-19.44s9.57.95,15,6.54l-16.6,14.87Z" transform="translate(-176.91 -126.5)"/><path class="cls-5" d="M2456,1045.1h7.2a35.77,35.77,0,0,1,35.77,35.77v90.62a0,0,0,0,1,0,0H2418a0,0,0,0,1,0,0v-88.43A38,38,0,0,1,2456,1045.1Z"/><path class="cls-7" d="M2640.12,1168.71h-7.2a40.9,40.9,0,0,0-40.86,40.85v91.32h86.72v-93.51A38.7,38.7,0,0,0,2640.12,1168.71Zm-7.2,5.78h7.2a32.92,32.92,0,0,1,32.88,32.88v87.73h-75.16v-85.54c0-.33,0-.66,0-1A35.13,35.13,0,0,1,2632.92,1174.49Z" transform="translate(-176.91 -126.5)"/><rect class="cls-7" x="2418.68" y="1082.08" width="78.99" height="5.46"/><rect class="cls-7" x="2455.52" y="1084.81" width="5.31" height="86.22"/><path class="cls-5" d="M2615.13,1138.27s17.29-5.8,44.08,0l-9.32,23.17a108.41,108.41,0,0,0-25.36,0Z" transform="translate(-176.91 -126.5)"/><path class="cls-5" d="M2621.11,1162,2611,1142.34s-11,2.25-15,6.54l16.74,15.19Z" transform="translate(-176.91 -126.5)"/><path class="cls-5" d="M2653.18,1162.1l9.18-19.44s9.57,1,15,6.54l-16.6,14.87Z" transform="translate(-176.91 -126.5)"/><polygon class="cls-8" points="1552.59 604.24 771.58 604.24 839.14 545.61 1552.59 545.61 1552.59 604.24"/><path class="cls-8" d="M2792.47,672.11q-4.72,28.57-12.73,58.63H2216.81V672.11Z" transform="translate(-176.91 -126.5)"/><rect class="cls-6" x="1385.16" y="955.45" width="849.01" height="28.8"/><polygon class="cls-9" points="1554.69 470.21 1524.46 470.21 1797.3 240.6 2072.64 470.21 1554.69 470.21"/><polygon class="cls-6" points="1385.16 955.45 1809.66 873.96 2234.17 955.45 1385.16 955.45"/><polygon class="cls-3" points="1506.84 955.45 1809.66 897.32 2112.48 955.45 1506.84 955.45"/><polygon class="cls-4" points="2039.9 500.13 1554.69 500.13 1554.69 470.21 1796.39 270.83 2039.9 470.21 2039.9 500.13"/><path class="cls-10" d="M1962.73,461.45a13.16,13.16,0,1,1,13.16,13.15A13.16,13.16,0,0,1,1962.73,461.45Z" transform="translate(-176.91 -126.5)"/><circle class="cls-10" cx="1798.98" cy="1034.74" r="13.16"/><rect class="cls-6" x="1396.69" y="1316.34" width="800.77" height="12.37"/><rect class="cls-11" x="1350.24" y="1328.71" width="893.69" height="12.36"/><rect class="cls-12" x="1301.81" y="1341.07" width="990.54" height="17.07"/><path class="cls-5" d="M1796.48,453.44h7.2a35.77,35.77,0,0,1,35.77,35.77v90.62a0,0,0,0,1,0,0h-80.94a0,0,0,0,1,0,0V491.4A38,38,0,0,1,1796.48,453.44Z"/><path class="cls-7" d="M2014.25,596.71a38.67,38.67,0,0,0-33.66-19.66h-7.2a40.88,40.88,0,0,0-40.86,40.85v91.32h86.72V615.71A38.33,38.33,0,0,0,2014.25,596.71Zm-.78,106.73h-75.16V617.9c0-.33,0-.66,0-1a35.13,35.13,0,0,1,35.07-34.09h7.2a32.91,32.91,0,0,1,32.88,32.88Z" transform="translate(-176.91 -126.5)"/><rect class="cls-7" x="1759.14" y="490.42" width="78.99" height="5.46"/><rect class="cls-7" x="1795.99" y="493.15" width="5.31" height="86.22"/><path class="cls-5" d="M1955.6,546.61s17.29-5.8,44.07,0l-9.31,23.17a108.44,108.44,0,0,0-25.36,0Z" transform="translate(-176.91 -126.5)"/><path class="cls-5" d="M1961.58,570.34l-10.07-19.66s-11,2.25-15,6.54l16.74,15.19Z" transform="translate(-176.91 -126.5)"/><path class="cls-5" d="M1993.65,570.44l9.18-19.44s9.57,1,15,6.54l-16.6,14.87Z" transform="translate(-176.91 -126.5)"/><path class="cls-13" d="M632.69,1501s-298.05-1-412.11-.55c-.77-3.23-1.52-6.5-2.27-9.78-.36-1.57-.72-3.15-1.09-4.73,0,0,0-.06,0-.09-2.88-12.6-5.74-25.73-8.43-38.87-11.24-54.19-20.77-112.49-26.39-172.3,23.8-6.81,119.82-31.05,181.92,1.64,71.32,37.53,59.47,93.3,128.27,77.62S675.86,1397.2,632.69,1501Z" transform="translate(-176.91 -126.5)"/><path class="cls-14" d="M3062.86,1555a394.1,394.1,0,0,1-9.34,64.71c-.49,2.09-1,4.2-1.53,6.32-1.61,6.52-3.36,13.15-5.26,19.78-2.26,8.79-5.27,18.08-8.53,27.37-.54,1.61-4.89,12.13-10.29,25.06a90.78,90.78,0,0,1-83.75,55.77H2705.79l-87.36-.24h-782.3L1709,1753.6l-101.31-.11H1005.39l-251.57-.24H384.07a121.43,121.43,0,0,1-114.81-81.86c-1.45-4.2-2.79-8.17-4-11.79-4.67-14.45-9.64-30.36-14.77-47.53-5-16.62-10.06-34.41-15.15-53.22-1.24-4.61-2.49-9.26-3.73-14-4.51-17.33-9-35.4-13.31-54.22-.36-1.57-.72-3.15-1.09-4.73,0,0,0-.06,0-.09h2842s0,.06,0,.09A306.14,306.14,0,0,1,3062.86,1555Z" transform="translate(-176.91 -126.5)"/><polygon class="cls-4" points="1489.6 1462.33 1327.7 1626.99 1531.02 1626.99 1657.29 1485.57 1489.6 1462.33"/><polygon class="cls-15" points="1544.52 1294.18 1543.01 1300.53 1541 1308.96 1534.74 1308.96 1534.37 1300.89 1534.08 1294.66 1544.52 1294.18"/><path class="cls-16" d="M1741.26,1282.43s5-5.3,8.18-1.14,6.79,7,11.73,10.16-4.37,28.25-10.56,27.74S1719.16,1298.92,1741.26,1282.43Z" transform="translate(-176.91 -126.5)"/><path class="cls-8" d="M1716.6,1279.91c1.23-.92,12.62-4.83,23.72-1s-8.6,14.56-8.6,14.56l-6.38.27Z" transform="translate(-176.91 -126.5)"/><path class="cls-17" d="M1709.17,1444.71a16.53,16.53,0,0,1,.44-4.08c.44-1,2-5.17,2-5.17h6.26a37.68,37.68,0,0,1,1.24,5c.07,1.24,0,4.23,0,4.23Z" transform="translate(-176.91 -126.5)"/><path class="cls-17" d="M1748.93,1444.71a16.53,16.53,0,0,0-.44-4.08c-.44-1-2-5.17-2-5.17h-6.26a39.34,39.34,0,0,0-1.24,5c-.07,1.24,0,4.23,0,4.23Z" transform="translate(-176.91 -126.5)"/><path class="cls-15" d="M1723.84,1272.67s-.22,6.83-1.09,9.89l-6.92,14.9,26-6.19-6.2-8.57s-1.88-9.15-.9-12.54S1723.84,1272.67,1723.84,1272.67Z" transform="translate(-176.91 -126.5)"/><path class="cls-18" d="M1723.81,1273.62s2,5,5.93,4.84,4.76-4.49,4.76-4.49Z" transform="translate(-176.91 -126.5)"/><path class="cls-19" d="M1721.49,1269.6a62.85,62.85,0,0,0-2.12-8.14c-.88-1.89-1.61-10.34,8.08-10.77,0,0,3.71.43,5.75-.8,0,0,0,1.23-.51,1.67a6.44,6.44,0,0,1,6,2.11c2.62,2.91-1.75,13.11-1.53,15.51Z" transform="translate(-176.91 -126.5)"/><path class="cls-15" d="M1729.3,1276.55c-2.81,0-8-3.79-8-8.43v-7.22a2.89,2.89,0,0,1,2.62-3.08h10.71a2.89,2.89,0,0,1,2.63,3.08v6.82C1737.28,1272.57,1732.52,1276.6,1729.3,1276.55Z" transform="translate(-176.91 -126.5)"/><path class="cls-19" d="M1721.32,1264.76s0-4.35,3.45-5,11.14,2.11,12.23-1-14.88-3.12-15.68-1.1S1721.32,1264.76,1721.32,1264.76Z" transform="translate(-176.91 -126.5)"/><path class="cls-20" d="M1733.31,1340c1.72-5.36,1.69,22.2-5.23,53.2-1,4.74-3.42,16.15-5.11,27.19h-14.18c-.19-8.92-1.15-21.37-1.75-30.69-1.89-29.23,2.92-51.16,2.92-51.16Z" transform="translate(-176.91 -126.5)"/><path class="cls-20" d="M1751.5,1389.72c-.16,8.94-2,20.81-2.14,29.51H1735c-1-6.32-2.5-12.82-3.6-18.07a50.09,50.09,0,0,1-1.34-8.76c0-3.79-2.39-14.74-3.82-24.39v0c-.06-.37-.11-.74-.16-1.11a159.58,159.58,0,0,1-1.24-26.84l24.26-1.52S1751.91,1365.89,1751.5,1389.72Z" transform="translate(-176.91 -126.5)"/><path class="cls-17" d="M1708,1349.8s5.46,6.62,20.28,5.66,21.91-3.53,21.91-3.53Z" transform="translate(-176.91 -126.5)"/><path class="cls-21" d="M1750.23,1351.93c-4.85.66-37.8,2.37-42.19-2.13s7.17-65.81,7.17-65.81,1.31-.38,3.52-.79c1.12-.21,2.48-.43,4-.62,0,.48.4,7.71,6.4,10.69,0,0,7.21-2.88,6.5-10.57a1.24,1.24,0,0,0,0-.27c1,.11,1.94.24,2.92.41a40.85,40.85,0,0,1,6,1.48S1755.07,1351.27,1750.23,1351.93Z" transform="translate(-176.91 -126.5)"/><path class="cls-21" d="M1708.32,1320.27c-.2.26,1.11,2.14,3,4.57,3.81,5,9.91,12.24,9.91,12.24a24.43,24.43,0,0,1-.43,4,91.45,91.45,0,0,1-17.79-10.64c-5.28-4.18-6.8-6.92-6.8-6.92,8.47-35.81,19.33-39.54,19.33-39.54l3.54,21.58S1708.91,1319.5,1708.32,1320.27Z" transform="translate(-176.91 -126.5)"/><path class="cls-7" d="M1738.54,1282.84l-2.18,6.64-2.91,4.27-4.18,2.27-3.93-2.27-6.61-10.55c1.12-.21,2.48-.43,4-.62a6.89,6.89,0,0,0,.82,2.7,6.49,6.49,0,0,0,11.48,0,5.22,5.22,0,0,0,.6-2.6,1.24,1.24,0,0,0,0-.27C1736.59,1282.54,1737.56,1282.67,1738.54,1282.84Z" transform="translate(-176.91 -126.5)"/><path class="cls-15" d="M1721.2,1337.08a1.34,1.34,0,0,1,0,.2c0,.45,0,.88-.08,1.26a6.8,6.8,0,0,1-.69.82,7.59,7.59,0,0,1-1.23,1l-.63-.31a87.53,87.53,0,0,1-15.58-9.56,18.84,18.84,0,0,0,8.31-5.65C1715.1,1329.82,1721.2,1337.08,1721.2,1337.08Z" transform="translate(-176.91 -126.5)"/><path class="cls-21" d="M1762.8,1322.24s-1.46,2.77-6.65,7.06a92.21,92.21,0,0,1-17.59,11,24.59,24.59,0,0,1-.51-4s6-7.36,9.68-12.42c1.81-2.46,3.08-4.37,2.88-4.62-.47-.6-6.83-9-9.66-12.69l-1.35-1.77,3.59-21.22S1753.66,1286.61,1762.8,1322.24Z" transform="translate(-176.91 -126.5)"/><path class="cls-15" d="M1756.14,1329.3a88.69,88.69,0,0,1-15.46,9.9l-.54.27a10,10,0,0,1-1.81-3.58l.47-.58c1.71-2.14,6-7.53,8.93-11.5A18.73,18.73,0,0,0,1756.14,1329.3Z" transform="translate(-176.91 -126.5)"/><path class="cls-15" d="M1735.62,1282.43a57.74,57.74,0,0,0-12.87.15v0S1734.66,1275.19,1735.62,1282.43Z" transform="translate(-176.91 -126.5)"/><polygon class="cls-8" points="1546.77 1176.77 1546.52 1176.77 1546.34 1165.29 1546.96 1165.29 1546.77 1176.77"/><path class="cls-8" d="M1723.41,1303c-.23.34-.73,1.45-.39,1.57a1.43,1.43,0,0,0,1.07,0C1724.24,1304.35,1723.83,1302.34,1723.41,1303Z" transform="translate(-176.91 -126.5)"/><polygon class="cls-8" points="1558.05 1176.77 1557.8 1176.77 1557.62 1165.29 1558.24 1165.29 1558.05 1176.77"/><path class="cls-8" d="M1734.68,1303c-.22.34-.72,1.45-.39,1.57a1.42,1.42,0,0,0,1.07,0C1735.52,1304.35,1735.1,1302.34,1734.68,1303Z" transform="translate(-176.91 -126.5)"/><path class="cls-8" d="M1725.34,1293.75l-10.13-9.76s-2.28-1.62,1.32-4S1725.34,1293.75,1725.34,1293.75Z" transform="translate(-176.91 -126.5)"/><path class="cls-8" d="M1733.44,1293.75l10.13-9.76s2.28-1.62-1.32-4S1733.44,1293.75,1733.44,1293.75Z" transform="translate(-176.91 -126.5)"/><path class="cls-8" d="M1746.16,1341.27a6.26,6.26,0,0,1-4.89-1.47,5.56,5.56,0,0,1-.59-.6,9.53,9.53,0,0,1-1.88-3.89,13.18,13.18,0,0,1-.4-2.56v-.28H1722v.3a9.18,9.18,0,0,1-.85,4.51,6.37,6.37,0,0,1-1.19,1.66,7.12,7.12,0,0,1-1.44,1.11,9.92,9.92,0,0,1-4.66,1.22h-.3v6.91h32.87v-6.93Z" transform="translate(-176.91 -126.5)"/><path class="cls-8" d="M1750.61,1319.19s-9.12-12-1.9-15.45c2.87-1.38,6.9,15,4.74,16.58s-5.72,3.49-5.72,3.49Z" transform="translate(-176.91 -126.5)"/><path class="cls-8" d="M1709.37,1317.21s3.16-15,.38-13.47-6.9,15-4.73,16.58,5.72,3.49,5.72,3.49Z" transform="translate(-176.91 -126.5)"/><path class="cls-16" d="M1749.33,1319.15c-4.16-5.17-5.72-13.56-5.5-22.22a100.63,100.63,0,0,1,1.11-12.58l3.41,2.66a23.7,23.7,0,0,0-2.11,9.94c-.14,5.78-.41,10.19,2.86,20.26Z" transform="translate(-176.91 -126.5)"/><path class="cls-17" d="M1717.72,1423.61h-7.34c-.65.07-1.67-.88-1.67-2.23a26.35,26.35,0,0,0-.23-3.84c-.94-2.54.46-2.68,1.82-2.68h13.39c1.36,0-.72,4.2-.72,5.56l.48,1.78C1723.45,1423.55,1719.08,1423.61,1717.72,1423.61Z" transform="translate(-176.91 -126.5)"/><path class="cls-7" d="M1719.91,1427l-2,8.42h-6.26l-.37-8.07C1712.21,1427.73,1715.35,1428.61,1719.91,1427Z" transform="translate(-176.91 -126.5)"/><polygon class="cls-15" points="1559.78 1294.18 1561.29 1300.53 1563.29 1308.96 1569.56 1308.96 1569.93 1300.89 1570.22 1294.66 1559.78 1294.18"/><path class="cls-17" d="M1740.4,1423.61h7.33c.65.07,1.67-.88,1.67-2.23a26.35,26.35,0,0,1,.23-3.84c.94-2.54-.46-2.68-1.82-2.68h-13.39c-1.36,0,.73,4.2.73,5.56l-.49,1.78C1734.66,1423.55,1739,1423.61,1740.4,1423.61Z" transform="translate(-176.91 -126.5)"/><path class="cls-7" d="M1738.2,1427l2,8.42h6.26l.38-8.07A13.1,13.1,0,0,1,1738.2,1427Z" transform="translate(-176.91 -126.5)"/><path class="cls-7" d="M1726.63,1271.5a3.4,3.4,0,0,0,2.67,1.27,3.15,3.15,0,0,0,2.49-1.27A17.25,17.25,0,0,0,1726.63,1271.5Z" transform="translate(-176.91 -126.5)"/><path class="cls-22" d="M1880.37,1344.2s-3.57,38.51,4.39,59.48c2.2,5.8,26.62,28.42,30.45,36,0,0,5.25-4.55,4.57-5.64-3.52-5.62-8.29-23-18.91-34.53s2.2-41.41,2.2-41.41Z" transform="translate(-176.91 -126.5)"/><path class="cls-15" d="M1883.41,1332.31c-10-2.56-21.08-18.13-21.08-18.13l2.83-2.46c2.92,3.45,15.09,9.4,15.09,9.4-.06-3.16,0-6,.22-8.66,1.35-17.82,8.07-23.76,9.9-25.06a5,5,0,0,1,.47-.3s0,.13,0,.37c0,.53.08,1.6.13,3.07C1891.35,1301.44,1891.8,1334.44,1883.41,1332.31Z" transform="translate(-176.91 -126.5)"/><path class="cls-15" d="M1865.16,1311.72c-.05-.42.18-5.93-1.64-7-1.44-.89-3.52-3.41-4.21-3.28s-2.59,4.17-1.48,6.86,4.5,5.93,4.5,5.93Z" transform="translate(-176.91 -126.5)"/><path class="cls-15" d="M1890,1455l5.11-.6s13.34-27.49,11.54-44.55a29,29,0,0,1,1.09-11.65c1.28-4.08,2.91-9.5,4.3-14.8.85-3.22,1.67-6.6,2.41-10,1-4.57,1.83-9.2,2.34-13.56.85-7.26.8-13.75-.92-18l-23.05-2.31s-2,18.49-2.54,36.85c0,1.14-.06,2.29-.08,3.43-.19,10,1.31,18.35,2.29,25.65a34,34,0,0,1,.24,6.84Z" transform="translate(-176.91 -126.5)"/><path class="cls-17" d="M1898.74,1267.28s5.39,4.6.44,9.89c0,0,4.13.4,5.53-.74a4,4,0,0,1-.53.81s4.61.16,6.51-1.28.68-25-12.12-22.39c0,0-10.85-.82-9.84,11.73s-3.08,12.56-3.08,12.56a5.85,5.85,0,0,0,1.69.56s.8-.31,1-.75a2.8,2.8,0,0,1-.37.92s4.43.42,6.63-1.25S1899.37,1269.87,1898.74,1267.28Z" transform="translate(-176.91 -126.5)"/><path class="cls-15" d="M1882.47,1294.81h29.58c-2.11-5.3-5.14-9.14-7.44-9.61-1.23-.32-3.31-4.76-3.29-11.9l-.55.11-9.29,1.84s.21,2.92.22,5.68c0,2.29-.12,4.63-.64,4.9-.67.06-1.28.18-1.28.18A23.9,23.9,0,0,0,1882.47,1294.81Z" transform="translate(-176.91 -126.5)"/><path class="cls-22" d="M1891.48,1275.25s.21,2.92.22,5.68c5.2-.15,7.94-4.89,9.07-7.52Z" transform="translate(-176.91 -126.5)"/><path class="cls-17" d="M1901.73,1272.4a27.25,27.25,0,0,0,3.38-8c.47-2.63-.87-12.37-10.66-11a13.37,13.37,0,0,0-5.52,2.08c-2.12,1.44-5.19,4.53-1.76,13l.89,2.88Z" transform="translate(-176.91 -126.5)"/><path class="cls-15" d="M1889.74,1277.86s12.3.2,12.31-7.46,1.6-12.8-6.25-13.25-9.38,2.47-10,5S1886.54,1277.61,1889.74,1277.86Z" transform="translate(-176.91 -126.5)"/><path class="cls-17" d="M1890.2,1257s3.37,9,8.54,10.32,7.41-.06,7.41-.06a14.62,14.62,0,0,1-4.79-8.64S1892.74,1252.68,1890.2,1257Z" transform="translate(-176.91 -126.5)"/><path class="cls-17" d="M1891,1257.69s-2.51,2-3.12,4-.89,6-2.06,5.83c0,0-2.54-6.11.31-9.57C1889.18,1254.25,1891,1257.69,1891,1257.69Z" transform="translate(-176.91 -126.5)"/><path class="cls-15" d="M1932.16,1353.35l-3.7,1.11s-12.18-20.21-13.28-25.47c-.37-1.71-1.25-5.14-2.28-9-2.14-7.94-4.9-17.67-4.9-17.67l-.91-3.94L1904,1285s5.93.61,9.41,2.06a4.29,4.29,0,0,1,2.33,1.73c2.55,5.61,5.1,19.76,6.89,29.86,1,5.63,1.76,10,2.15,10.93C1925.88,1332.13,1929.27,1346.34,1932.16,1353.35Z" transform="translate(-176.91 -126.5)"/><path class="cls-17" d="M1890.57,1258s2.4,9.42,8.92,12.43c0,0-6.52-5.78-7.08-12S1890.57,1258,1890.57,1258Z" transform="translate(-176.91 -126.5)"/><path class="cls-7" d="M1891.36,1310.92c-.52,12.71-2.42,25.3-8,24.49-6.78-1-8.55-7.32-8.91-12a27.31,27.31,0,0,1,.1-5.23s3.34,0,3.88-.51c2.56-2.37,1.8-25.6,3.07-28s9.5-4,9.5-4S1891.88,1298.36,1891.36,1310.92Z" transform="translate(-176.91 -126.5)"/><path class="cls-20" d="M1922.73,1370.08a75,75,0,0,1-12,2.8c-8.83,1.38-21.18,1.88-32.2-2.8,0,0-.91-18.54,1.7-28.2s3.83-14.29,3.83-14.29,10.47,3,21.1.66a30.52,30.52,0,0,0,4.46-1.3s6.56,15.73,8.36,22.47S1922.73,1370.08,1922.73,1370.08Z" transform="translate(-176.91 -126.5)"/><path class="cls-7" d="M1933.5,1334.57c0,3.19-3.26,5.15-6.75,6.11s-6.94.9-8.06.15c-1.94-1.29-5.08-15.68-6-20.07-.17-.79-.26-1.26-.26-1.26s-2.51,6-2.59,6.55c0,.26-.07.6-.09.91s0,.67,0,.67-13.63,6.88-25.55.56c0,0-4.85-28-2.75-32.85,1-2.39,6.51-7.34,8.69-9.47a2.6,2.6,0,0,0,.25-2.3,1,1,0,0,1,1.23-1.19,12.86,12.86,0,0,0,6.63-.59,16,16,0,0,0,4.06-2,.62.62,0,0,1,1,.44c.21,1.67.71,4.72,1.64,4.72,1.27,0,9.93,1.06,10.56,2.13.22.37,2.48,5.47,5.32,12.22v0C1926.09,1312,1933.5,1330.48,1933.5,1334.57Z" transform="translate(-176.91 -126.5)"/><path class="cls-23" d="M1912.43,1319.5s-2.51,6-2.59,6.55c0,.26-.07.6-.09.91a12.23,12.23,0,0,1-4.18,2.19c-4.24,1.29-6.09-6.85-5.83-10.92s6.26-15.65,8.26-15.89S1912.43,1319.5,1912.43,1319.5Z" transform="translate(-176.91 -126.5)"/><path class="cls-24" d="M1912.69,1320.76c-.17-.79-.26-1.26-.26-1.26A6.57,6.57,0,0,1,1912.69,1320.76Z" transform="translate(-176.91 -126.5)"/><path class="cls-25" d="M1941.31,1369.09a3.76,3.76,0,0,0-2.39-2.79,14.59,14.59,0,0,0-9.27-.22c-6.78,2-7.44,6.15-7,9.15s-.88,7.76-.69,11.16,1.17,11.93,6.19,11.48,21.18-4.79,21.18-4.79,2.79-5.32-2.94-13A27.56,27.56,0,0,1,1941.31,1369.09Z" transform="translate(-176.91 -126.5)"/><path class="cls-26" d="M1938.2,1365.17l-1.34.12a2.94,2.94,0,0,0-.77-1.51,2.18,2.18,0,0,0-1.94-.48,2,2,0,0,0-1.61,1,3.26,3.26,0,0,0-.18,1.85l-1.31.3a5.46,5.46,0,0,1,.29-3.17,3.24,3.24,0,0,1,2.48-1.75,3.38,3.38,0,0,1,3,.87A5.2,5.2,0,0,1,1938.2,1365.17Z" transform="translate(-176.91 -126.5)"/><path class="cls-21" d="M1952.66,1392.32s-16.17,4.35-21.19,4.79-6-8.07-6.17-11.48,1.12-8.16.68-11.16a8.49,8.49,0,0,1-.1-1.84c.13-2.67,1.63-5.7,7.08-7.3a14.53,14.53,0,0,1,9.28.23,3.75,3.75,0,0,1,2.39,2.78c.06.26.12.58.19.89a27.76,27.76,0,0,0,4.9,10.08C1955.46,1387,1952.66,1392.32,1952.66,1392.32Z" transform="translate(-176.91 -126.5)"/><path class="cls-27" d="M1927.74,1386.35l9.75-2.21s2.26,7-2.34,8.25S1928.63,1391,1927.74,1386.35Z" transform="translate(-176.91 -126.5)"/><path class="cls-26" d="M1927.74,1386.35a6,6,0,0,0,5.29,1.4,7.52,7.52,0,0,0,4.46-3.61Z" transform="translate(-176.91 -126.5)"/><path class="cls-27" d="M1939.46,1383.69l9.75-2.2s2.27,7-2.34,8.25S1940.35,1388.31,1939.46,1383.69Z" transform="translate(-176.91 -126.5)"/><path class="cls-26" d="M1939.46,1383.69a6,6,0,0,0,5.29,1.41,7.52,7.52,0,0,0,4.46-3.61Z" transform="translate(-176.91 -126.5)"/><path class="cls-8" d="M1944.63,1368.34c.06.26.12.58.19.89-1.29,2.66-3.73,6.06-7.87,6.85a11.87,11.87,0,0,1-11.07-3.45c.13-2.67,1.63-5.7,7.08-7.3a14.53,14.53,0,0,1,9.28.23A3.75,3.75,0,0,1,1944.63,1368.34Z" transform="translate(-176.91 -126.5)"/><path class="cls-28" d="M1937.05,1377.55h0a.82.82,0,0,1-1-.62l-.16-.73a.81.81,0,0,1,.62-1h0a.83.83,0,0,1,1,.62l.16.73A.82.82,0,0,1,1937.05,1377.55Z" transform="translate(-176.91 -126.5)"/><path class="cls-15" d="M1931.9,1352.74s1.12,2.64,2.29,3.38a6.53,6.53,0,0,1,2.52,3.94,3.49,3.49,0,0,1-3,4.25c-1.48,0-2.89-2-3.76-6.83,0-.26-1.45-3-1.45-3Z" transform="translate(-176.91 -126.5)"/><path class="cls-29" d="M1895.27,1331.28c-7.75,0-11-2.67-11.18-2.85l-.51-3.65c.08,0,10.48,6.3,26.58.32l-.34,2.76C1903.63,1330.16,1899.3,1331.28,1895.27,1331.28Z" transform="translate(-176.91 -126.5)"/><path class="cls-15" d="M1895.14,1455.18a5.79,5.79,0,0,0,0,3.38l-7.36,4.49-8.67,2.26-2.55-1.32s12.92-6.56,13.56-16.57C1890.66,1439.63,1895.14,1455.18,1895.14,1455.18Z" transform="translate(-176.91 -126.5)"/><path class="cls-30" d="M1888.8,1465.2c-4.19.55-2.85,1.31-8.52,2.82s-8.12.13-8.6-.62,2.16-2,4.92-3.41l.05,0a16.46,16.46,0,0,0,8.74-.6c3.73-1.35,7.23-3.92,9.79-4.87a10.16,10.16,0,0,1,.94,2.57C1896.57,1463.72,1893,1464.65,1888.8,1465.2Z" transform="translate(-176.91 -126.5)"/><path class="cls-22" d="M1926.86,1436.9c2.16,1.13.83,4.28-1.12,7.68s-.64,2.83-2.72,7.86-4.48,6-5.3,6-.22-2.7.26-5.54l.18-1.08c.51-3.23-.84-6.09-1.67-9.39-.78-3.13-6-9-6-9l2.63-7s4.6,5.39,6.65,7.55a8.89,8.89,0,0,0,4.66,2.11A9.86,9.86,0,0,1,1926.86,1436.9Z" transform="translate(-176.91 -126.5)"/><path class="cls-30" d="M1925.74,1444.58c-2,3.39-.64,2.83-2.72,7.86s-4.48,6-5.3,6-.22-2.7.26-5.54h.06a15.3,15.3,0,0,0,4.47-6.78c1.11-3.5,1.18-7.53,1.93-9.95a9.86,9.86,0,0,1,2.42.76C1929,1438,1927.69,1441.18,1925.74,1444.58Z" transform="translate(-176.91 -126.5)"/><polygon class="cls-17" points="1680 1172.33 1680.18 1175.94 1680.42 1180.7 1680.62 1184.64 1687.18 1184.64 1687.39 1180.7 1687.65 1175.94 1687.85 1172.33 1680 1172.33"/><polygon class="cls-7" points="1679.54 1172.9 1688.25 1172.9 1688 1171.57 1679.7 1171.57 1679.54 1172.9"/><polygon class="cls-7" points="1683.04 1171.57 1681.02 1171.1 1680.74 1171.57 1683.04 1171.57"/><polygon class="cls-7" points="1680.18 1175.94 1680.42 1180.7 1687.39 1180.7 1687.65 1175.94 1680.18 1175.94"/><path class="cls-15" d="M1857.09,1302.44s1.77-1.34,2.06.48c.13.88-1.85,3.79-1.85,3.79C1856.62,1306.1,1856.11,1302.88,1857.09,1302.44Z" transform="translate(-176.91 -126.5)"/><path class="cls-31" d="M405.42,827.07s19-24.77,64.57-22c0,0,66.09-41.29,136.57-5.5,0,0,74.92-8.87,130.4,7.67,37,11,49.21,22.6,49.21,22.6Z" transform="translate(-176.91 -126.5)"/><path class="cls-31" d="M1854.59,293.29s16-24.77,54.1-22c0,0,55.39-41.29,114.46-5.5,0,0,62.79-8.87,109.28,7.68,31,11,41.24,22.6,41.24,22.6Z" transform="translate(-176.91 -126.5)"/><path class="cls-31" d="M863.62,616.4s21.1-24.78,71.57-22c0,0,73.26-41.29,151.39-5.51,0,0,83-8.86,144.55,7.68,41,11,54.55,22.6,54.55,22.6Z" transform="translate(-176.91 -126.5)"/><path class="cls-31" d="M2761.86,413.64l-591.43-3.86s32.87-38.58,111.47-34.3c0,0,114.11-64.3,235.79-8.57,0,0,129.34-13.81,225.14,11.95l.31.09A378.81,378.81,0,0,1,2761.86,413.64Z" transform="translate(-176.91 -126.5)"/><path class="cls-31" d="M818.56,528.17A15.86,15.86,0,1,1,834.42,544,15.86,15.86,0,0,1,818.56,528.17Z" transform="translate(-176.91 -126.5)"/><path class="cls-32" d="M661.66,893.49s12.45-16.2,42.23-14.4c0,0,43.22-27,89.32-3.6,0,0,49-5.8,85.29,5,24.2,7.21,32.19,14.78,32.19,14.78Z" transform="translate(-176.91 -126.5)"/><path class="cls-33" d="M3059.17,1485.91l-721,.15s-6.47-61,46.6-73.56,24.77-49.07,64.87-68.32,97.89-11.14,112.05,34.39,57.79,4,110.85,0,67.75,24.55,76.92,39.87,82.29,24.51,116.5-17,59-50.61,96.71-50.88c10.08-.06,18.31-4.18,26-10.19,6.64,8,13,16.24,19.14,24.71C3032.3,1399.77,3051.07,1440.55,3059.17,1485.91Z" transform="translate(-176.91 -126.5)"/><path class="cls-4" d="M2208.85,1580.78c0,29.06-213.11,52.62-476,52.62s-476-23.56-476-52.62,213.11-52.61,476-52.61S2208.85,1551.72,2208.85,1580.78Z" transform="translate(-176.91 -126.5)"/><path class="cls-4" d="M2276.62,1591.08c0,38.59-256.46,69.88-572.82,69.88S1131,1629.67,1131,1591.08s256.46-69.87,572.82-69.87S2276.62,1552.49,2276.62,1591.08Z" transform="translate(-176.91 -126.5)"/><path class="cls-4" d="M3062.86,1555a394.1,394.1,0,0,1-9.34,64.71c-.49,2.09-1,4.2-1.53,6.32H2027l136.14-71Z" transform="translate(-176.91 -126.5)"/><path class="cls-4" d="M1469.3,1551.84v60.23H250.5c-5-16.62-10.06-34.41-15.15-53.22Z" transform="translate(-176.91 -126.5)"/><path class="cls-33" d="M2234.5,1555c-16.38,0-24.85-19.74-13.42-31.47,7.75-7.94,17.75-15.08,30.15-18.13,34.9-8.57,43.48,17.76,64.3,15.31s54.16-16.28,86.78,7.48,90-15.65,129.16-11.56c13.2,1.37,21.77,6.17,27.32,11.94,9.54,9.89,2.29,26.43-11.45,26.43Z" transform="translate(-176.91 -126.5)"/><polygon class="cls-34" points="2445.94 1358.77 2678.29 1358.77 2689.03 1304.15 2457.1 1304.15 2445.94 1358.77"/><polygon class="cls-9" points="2441.97 1358.77 2674.32 1358.77 2685.06 1304.15 2453.13 1304.15 2441.97 1358.77"/><path class="cls-34" d="M2791.71,1485.27h63.49a0,0,0,0,1,0,0V1492a0,0,0,0,1,0,0h-68.58a0,0,0,0,1,0,0v-1.6A5.09,5.09,0,0,1,2791.71,1485.27Z" transform="translate(5464.92 2850.72) rotate(180)"/><rect class="cls-35" x="2576.11" y="1485.27" width="211.03" height="6.69" transform="translate(5186.33 2850.72) rotate(180)"/><path class="cls-35" d="M2841.33,1492l4,15.64v0l11.78,46.34a1.36,1.36,0,0,0,1.31,1,1.9,1.9,0,0,0,1.87-2.26l-10.51-54-1.3-6.72Z" transform="translate(-176.91 -126.5)"/><path class="cls-34" d="M2845.31,1507.59c-.38-8,4.45-8.92,4.45-8.92l-1.3-6.72h-7.13Z" transform="translate(-176.91 -126.5)"/><path class="cls-35" d="M2790.93,1492l4,15.64v0l11.77,46.34a1.37,1.37,0,0,0,1.32,1,1.9,1.9,0,0,0,1.87-2.26l-10.51-54-1.31-6.72Z" transform="translate(-176.91 -126.5)"/><path class="cls-34" d="M2794.91,1507.59c-.39-8,4.45-8.92,4.45-8.92l-1.31-6.72h-7.12Z" transform="translate(-176.91 -126.5)"/><path class="cls-35" d="M2595.37,1492l-4,15.64v0L2579.61,1554a1.37,1.37,0,0,1-1.32,1,1.89,1.89,0,0,1-1.86-2.26l10.5-54,1.31-6.72Z" transform="translate(-176.91 -126.5)"/><path class="cls-34" d="M2591.39,1507.59c.38-8-4.46-8.92-4.46-8.92l1.31-6.72h7.13Z" transform="translate(-176.91 -126.5)"/><path class="cls-35" d="M2645.77,1492l-4,15.64v0L2630,1554a1.36,1.36,0,0,1-1.31,1,1.9,1.9,0,0,1-1.87-2.26l10.5-54,1.31-6.72Z" transform="translate(-176.91 -126.5)"/><path class="cls-34" d="M2641.79,1507.59c.38-8-4.46-8.92-4.46-8.92l1.31-6.72h7.13Z" transform="translate(-176.91 -126.5)"/><polygon class="cls-34" points="666.78 1351.05 866.77 1351.05 876.02 1304.04 676.39 1304.04 666.78 1351.05"/><polygon class="cls-9" points="663.37 1351.05 863.36 1351.05 872.6 1304.04 672.98 1304.04 663.37 1351.05"/><path class="cls-34" d="M989,1477.55h54.65a0,0,0,0,1,0,0v5.75a0,0,0,0,1,0,0h-59a0,0,0,0,1,0,0v-1.38A4.38,4.38,0,0,1,989,1477.55Z" transform="translate(1851.44 2834.35) rotate(180)"/><rect class="cls-35" x="803.46" y="1477.55" width="181.63" height="5.75" transform="translate(1611.65 2834.35) rotate(180)"/><path class="cls-35" d="M1031.75,1483.3l3.42,13.47h0l10.14,39.89a1.17,1.17,0,0,0,1.13.88,1.64,1.64,0,0,0,1.61-2l-9-46.52-1.12-5.78Z" transform="translate(-176.91 -126.5)"/><path class="cls-34" d="M1035.17,1496.77c-.33-6.89,3.83-7.69,3.83-7.69l-1.12-5.78h-6.13Z" transform="translate(-176.91 -126.5)"/><path class="cls-35" d="M988.36,1483.3l3.43,13.47h0l10.13,39.89a1.19,1.19,0,0,0,1.14.88,1.63,1.63,0,0,0,1.6-2l-9-46.52-1.12-5.78Z" transform="translate(-176.91 -126.5)"/><path class="cls-34" d="M991.79,1496.77c-.33-6.89,3.83-7.69,3.83-7.69l-1.12-5.78h-6.14Z" transform="translate(-176.91 -126.5)"/><path class="cls-35" d="M820,1483.3l-3.43,13.47h0l-10.13,39.89a1.17,1.17,0,0,1-1.13.88,1.64,1.64,0,0,1-1.61-2l9-46.52,1.13-5.78Z" transform="translate(-176.91 -126.5)"/><path class="cls-34" d="M816.61,1496.77c.33-6.89-3.83-7.69-3.83-7.69l1.13-5.78H820Z" transform="translate(-176.91 -126.5)"/><path class="cls-35" d="M863.42,1483.3,860,1496.77h0l-10.14,39.89a1.17,1.17,0,0,1-1.13.88,1.64,1.64,0,0,1-1.61-2l9-46.52,1.13-5.78Z" transform="translate(-176.91 -126.5)"/><path class="cls-34" d="M860,1496.77c.33-6.89-3.84-7.69-3.84-7.69l1.13-5.78h6.13Z" transform="translate(-176.91 -126.5)"/><path class="cls-17" d="M688.39,1265.85c2.77-4.21,13.77-1.85,24.58,5.27s17.31,16.29,14.54,20.5-13.78,1.85-24.58-5.26S685.62,1270.06,688.39,1265.85Z" transform="translate(-176.91 -126.5)"/><path class="cls-16" d="M744.83,1422.24l-2.13.12s-.83-37.24-4.1-52.3c-6.08-28-22-50-22.14-50.18l3.82-1.22a126,126,0,0,1,7.47,13.48c3.93,7.94,10.25,21.16,13,36.56C743.55,1383.9,744.91,1422,744.83,1422.24Z" transform="translate(-176.91 -126.5)"/><path class="cls-36" d="M706.28,1265.52s13.94-3,20.63,8.37,7.07,31,11.53,37.48,12.33,33.65,4,39.73-59.89-.22-62.78-3,.17-31.33,5.21-39.61S677.59,1261.31,706.28,1265.52Z" transform="translate(-176.91 -126.5)"/><path class="cls-15" d="M685.51,1389.64c-15.77-4-33.11-28.49-33.11-28.49l4.44-3.85c4.6,5.42,23.72,14.76,23.72,14.76-.1-5,0-9.49.34-13.61,2.12-28,12.67-37.32,15.55-39.37a7.32,7.32,0,0,1,.74-.47s0,.21,0,.59c0,.83.12,2.51.2,4.81C698,1341.14,698.69,1393,685.51,1389.64Z" transform="translate(-176.91 -126.5)"/><path class="cls-15" d="M656.84,1357.3c-.07-.66-.51-10.28-2.42-12.11s-5.69-4.33-6.77-4.13-4.77,6.33-3,10.55,7.78,9.54,7.78,9.54Z" transform="translate(-176.91 -126.5)"/><path class="cls-15" d="M719.86,1552.39c-1,3.82-2,7.46-3.09,10.85-.24.72-.46,1.44-.69,2.13-.12.35-.24.69-.35,1-.22.67-.45,1.33-.67,2-.29.84-.58,1.66-.87,2.45-.21.58-.42,1.16-.63,1.72-3.2,8.58-5.88,14-5.88,14l-6.37-.44a173.84,173.84,0,0,0,2.87-27.69c0-.58,0-1.17,0-1.76,0-1.27,0-2.56,0-3.87,0-.54,0-1.09,0-1.64-.12-14-1.86-30.64-7.41-46.48a304.86,304.86,0,0,1-10.15-35.83c-7.63-35.16-5.84-58.27-5.84-58.27l35.86,4.2,1.67.19c.15,16.47.58,38.83,1,56.32.06,3,.12,5.92.18,8.6.25,11.23.43,18.9.43,18.9C726.84,1513.63,724.34,1534.59,719.86,1552.39Z" transform="translate(-176.91 -126.5)"/><path class="cls-15" d="M737,1406.56c-6.78-15.2-10-19.49-10.13-24.28-.09-3.78,1.77-7.86,5.4-17.86a37.31,37.31,0,0,0,1.8-7.23c2.86-19.29-8.29-40.14-15.22-41.56-1.93-.51-5.2-7.47-5.16-18.7l-.87.17L698.2,1300s.33,4.6.34,8.92c0,3.61-.19,7.28-1,7.71-1,.09-12.51,2.14-14.6,5.43s.24,3.53-.56,15.3c-1.06,15.71,10,34.34.19,65.76C672.54,1435.19,740.71,1415,737,1406.56Z" transform="translate(-176.91 -126.5)"/><path class="cls-37" d="M698.2,1300s.33,4.6.34,8.92c8.17-.23,12.48-7.68,14.25-11.81Z" transform="translate(-176.91 -126.5)"/><path class="cls-15" d="M695.47,1304.09s19.32.32,19.34-11.72,2.51-20.1-9.82-20.81-14.74,3.87-15.73,7.89S690.44,1303.7,695.47,1304.09Z" transform="translate(-176.91 -126.5)"/><path class="cls-36" d="M696.18,1271.26s5.3,14.12,13.42,16.21,11.64-.09,11.64-.09a23,23,0,0,1-7.52-13.58S700.18,1264.54,696.18,1271.26Z" transform="translate(-176.91 -126.5)"/><path class="cls-36" d="M697.5,1272.41s-4,3.15-4.92,6.21-1.4,9.38-3.23,9.17c0,0-4-9.6.49-15C694.59,1267,697.5,1272.41,697.5,1272.41Z" transform="translate(-176.91 -126.5)"/><path class="cls-15" d="M762.1,1422.7l-5.8,1.74s-19.14-31.75-20.88-40c-.56-2.69-2-8.08-3.58-14.11-3.36-12.49-7.7-27.77-7.7-27.77l-1.42-6.18-4.88-21.1s9.33,1,14.79,3.23c1.8.76,3.18,1.66,3.66,2.71,4,8.82,8,31.06,10.83,46.93,1.56,8.84,2.76,15.7,3.38,17.16C752.24,1389.36,757.56,1411.68,762.1,1422.7Z" transform="translate(-176.91 -126.5)"/><path class="cls-36" d="M696.76,1272.88s3.77,14.79,14,19.53c0,0-10.25-9.09-11.12-18.85S696.76,1272.88,696.76,1272.88Z" transform="translate(-176.91 -126.5)"/><path class="cls-15" d="M740.43,1549.3c-2.06,22-11.14,36.24-11.14,36.24l-3.1,2.82s-2.82-16.11-4.86-34.56c-1.94-17.53-4.61-36.08-7.62-41.74-4.5-8.46-7.82-25.76-10.21-44-4-30.25-5.35-63.18-5.35-63.18l36.36-1.81c3.65,6.15,5.25,16.23,5.62,27.7a280.14,280.14,0,0,1-1.86,37.77c-1.84,17-4.4,31.15-5,34.33v0a1.88,1.88,0,0,0,.24,1.22C740.75,1518.38,741.79,1534.77,740.43,1549.3Z" transform="translate(-176.91 -126.5)"/><path class="cls-38" d="M671.51,1375.62c.56,7.39,3.34,17.34,14,18.89,3.77.55,6.47-2.85,8.38-8.51,2.5-7.4,3.66-18.65,4.12-30,.45-10.71.27-21.49,0-29.1-4.37-.5-12.39-4.2-14.85-5.12l-.21.23a1.33,1.33,0,0,0-.14.19,1.86,1.86,0,0,0-.22.35c-1.06,2-1.22,13.35-1.75,24-.45,9.35-1.2,18.22-3.08,20-.85.79-6.09.81-6.09.81A41.91,41.91,0,0,0,671.51,1375.62Z" transform="translate(-176.91 -126.5)"/><path class="cls-39" d="M698,1356c-.81,20-3.8,39.75-12.5,38.47-10.65-1.55-13.43-11.5-14-18.89,2.62-.14,7.23-.77,9.06-3.57,2.62-4,10.79-29.72,10.79-29.72S694.57,1348.11,698,1356Z" transform="translate(-176.91 -126.5)"/><path class="cls-20" d="M686.69,1383.17s21.39,5.36,40.15-.89c0,0,10.3,21.87,13.13,31.25s24.24,129.33,24.24,129.33-47.11,13.62-78.42,1.86c0,0-9.22-128.25-5.12-141.69S686.69,1383.17,686.69,1383.17Z" transform="translate(-176.91 -126.5)"/><path class="cls-38" d="M680.83,1346.54c1.57,15.46,5.86,36.44,5.86,36.44a34.79,34.79,0,0,0,7.19,2.82c16.62,4.51,33-3.7,33-3.7s0-.48.06-1.06.08-1,.14-1.41c.12-.88,4.07-10.26,4.07-10.26l.41,2c1.44,6.87,6.39,29.41,9.42,31.44,1.76,1.17,7.38,1.19,12.66-.25,5.5-1.49,10.61-4.57,10.61-9.57,0-6.4-11.64-35.34-20-55.18v0c-4.47-10.57-7.06-17.93-10.48-18.75,0,0-23,9.35-35.7,7.92-4.37-.5-12.39-4.19-14.85-5.11l-.21.23a1.33,1.33,0,0,0-.14.19,1.37,1.37,0,0,0-.13.2c-1.87,2.75-1.57,7.3-1.67,9A79.14,79.14,0,0,0,680.83,1346.54Z" transform="translate(-176.91 -126.5)"/><path class="cls-39" d="M731.11,1369.52s-4,9.41-4.07,10.29c-.06.4-.1.94-.14,1.42a19.67,19.67,0,0,1-6.56,3.45c-6.67,2-9.57-10.77-9.17-17.15s9.83-24.6,13-25S731.11,1369.52,731.11,1369.52Z" transform="translate(-176.91 -126.5)"/><path class="cls-24" d="M731.52,1371.5l-.41-2A10.42,10.42,0,0,1,731.52,1371.5Z" transform="translate(-176.91 -126.5)"/><path class="cls-40" d="M704,1387.25c-12.19,0-17-3.42-17.39-3.71l-.79-5.74c.12.09,16.46,9.91,41.76.51l-.54,4.34C717.28,1386.27,710.29,1387.25,704,1387.25Z" transform="translate(-176.91 -126.5)"/><path class="cls-39" d="M764.21,1393.19c0,5-5.11,8.1-10.61,9.6,7.57-9-9-63.56-9.41-65C752.57,1357.73,764.21,1386.77,764.21,1393.19Z" transform="translate(-176.91 -126.5)"/><path class="cls-17" d="M711.35,1591.9h-4.07c-1.36-.21-2.37-.61-3.77-.79a3.75,3.75,0,0,0-3.29.79l0,0H682.9c-.44-.62,0-2.06.39-3.11a2.47,2.47,0,0,1,1.62-1.48c1.83-.53,5.44-1,8.75-4,1.86-1.68,9-6.19,9-6.19h0c.16,0,.9.24,4.14,3,1.68,1.42,4.54-2,4.54-2a4.05,4.05,0,0,1,.93,1.27,4.27,4.27,0,0,1,.37,2.65c-.25,1.56.58,4.45,1.24,6.41.41,1.19.74,2,.74,2S714.85,1591.46,711.35,1591.9Z" transform="translate(-176.91 -126.5)"/><path class="cls-41" d="M712.3,1579.4a13,13,0,0,1-4.38,2.21c-1.83.24-5.27-4.45-5.27-4.45h0c.16,0,.9.24,4.14,3,1.68,1.42,4.54-2,4.54-2A4.05,4.05,0,0,1,712.3,1579.4Z" transform="translate(-176.91 -126.5)"/><path class="cls-41" d="M711.35,1591.9h-4.07c-1.36-.21-2.37-.61-3.77-.79a3.75,3.75,0,0,0-3.29.79l0,0H682.9c-.44-.62,0-2.06.39-3.11.53-.47.67,2,1,2.42s14.1.14,14.9-.44a8.33,8.33,0,0,1,6.52-.79c2.91.69,7.18-1.09,8.24-1.56.41,1.19.74,2,.74,2S714.85,1591.46,711.35,1591.9Z" transform="translate(-176.91 -126.5)"/><path class="cls-17" d="M733.06,1591.9H729c-1.36-.21-2.37-.61-3.77-.79a3.75,3.75,0,0,0-3.29.79l0,0H704.61c-.44-.62,0-2.06.39-3.11a2.47,2.47,0,0,1,1.62-1.48c1.83-.53,5.44-1,8.75-4,1.87-1.68,9-6.19,9-6.19h0c.16,0,.9.24,4.14,3,1.68,1.42,4.54-2,4.54-2a4.05,4.05,0,0,1,.93,1.27,4.2,4.2,0,0,1,.37,2.65c-.25,1.56.58,4.45,1.24,6.41.41,1.19.74,2,.74,2S736.56,1591.46,733.06,1591.9Z" transform="translate(-176.91 -126.5)"/><path class="cls-41" d="M734,1579.4a13,13,0,0,1-4.38,2.21c-1.83.24-5.27-4.45-5.27-4.45h0c.16,0,.9.24,4.14,3,1.68,1.42,4.54-2,4.54-2A4.05,4.05,0,0,1,734,1579.4Z" transform="translate(-176.91 -126.5)"/><path class="cls-41" d="M733.06,1591.9H729c-1.36-.21-2.37-.61-3.77-.79a3.75,3.75,0,0,0-3.29.79l0,0H704.61c-.44-.62,0-2.06.39-3.11.53-.47.67,2,1,2.42s14.1.14,14.9-.44a8.33,8.33,0,0,1,6.52-.79c2.91.69,7.18-1.09,8.24-1.56.41,1.19.74,2,.74,2S736.56,1591.46,733.06,1591.9Z" transform="translate(-176.91 -126.5)"/><path class="cls-15" d="M761.69,1421.74s1.77,4.15,3.6,5.31a10.27,10.27,0,0,1,4,6.19c.7,4.11-2.45,6.67-4.77,6.67s-4.54-3.16-5.9-10.72c-.08-.41-2.28-4.75-2.28-4.75Z" transform="translate(-176.91 -126.5)"/><polygon class="cls-42" points="471.16 1209.35 471.43 1212.14 472.28 1220.92 472.83 1226.54 484.04 1226.54 484.73 1220.92 485.81 1212.14 486.15 1209.35 471.16 1209.35"/><polygon class="cls-43" points="470.36 1209.35 487.03 1209.35 486.71 1207.68 470.77 1207.68 470.36 1209.35"/><polygon class="cls-43" points="471.43 1212.14 472.28 1220.92 484.73 1220.92 485.81 1212.14 471.43 1212.14"/><path class="cls-15" d="M646.86,1341.8s2.83-3.16,5.67-.75-.19,7.58-2.65,9a19.8,19.8,0,0,0-3.24,2.15Z" transform="translate(-176.91 -126.5)"/><path class="cls-16" d="M711.13,1422.41l2.13-.16s-4.17-37.27-3-52.73c2.27-28.79,15.07-52.84,15.22-53l-3.95-.7a126,126,0,0,0-5.6,14.46c-2.83,8.44-7.32,22.49-8,38.22C707.26,1384,711,1422.22,711.13,1422.41Z" transform="translate(-176.91 -126.5)"/><path class="cls-44" d="M737,1414.22s-2.07-5.1-5.36-6.37L714.78,1411s4.15,4,4.54,6.52Z" transform="translate(-176.91 -126.5)"/><path class="cls-45" d="M715.85,1443l28.72-5.42a2.49,2.49,0,0,0,2-2.9l-3.59-19a2.5,2.5,0,0,0-2.91-2l-28.72,5.42a2.47,2.47,0,0,0-2,2.9l3.59,19A2.49,2.49,0,0,0,715.85,1443Z" transform="translate(-176.91 -126.5)"/><rect class="cls-24" x="726.27" y="1403.71" width="13.74" height="17.61" transform="translate(1301.68 2692.05) rotate(179.5)"/><rect class="cls-42" x="727.05" y="1403.7" width="13.74" height="17.61" transform="translate(1303.26 2692.03) rotate(179.5)"/><rect class="cls-46" x="722.56" y="1408.29" width="13.74" height="17.61" transform="translate(1993.06 1972.54) rotate(142.57)"/><rect class="cls-47" x="723.78" y="1407.36" width="13.74" height="17.61" transform="translate(1994.69 1970.12) rotate(142.57)"/><path class="cls-16" d="M722.87,1441.65l27.5-5.18a3.1,3.1,0,0,0,2.48-3.63L749.49,1415a3.1,3.1,0,0,0-3.63-2.48l-27.5,5.18a3.11,3.11,0,0,0-2.48,3.63l3.36,17.82A3.1,3.1,0,0,0,722.87,1441.65Z" transform="translate(-176.91 -126.5)"/><path class="cls-17" d="M729.37,1281.17s8.79-17.5-3.49-24.42-21.28-4.2-28,4.26Z" transform="translate(-176.91 -126.5)"/><path class="cls-20" d="M687.88,1276.07a19.9,19.9,0,0,1,1.92-4.49c-.67-1.61-.74-3-.09-4,.82-1.32,2.7-1.85,5.25-1.69,4.37.28,10.73,2.63,17.13,6.62a40.1,40.1,0,0,1,14.67,15.64c1.27,2.62,5.76,5.78,7.33,9.15a5.27,5.27,0,0,0,3.33-2.26c2.29-3.67-1.16-10.29-8.24-17.21a84.44,84.44,0,0,0-14.17-11,88.53,88.53,0,0,0-13.08-6.77c-10.68-4.37-19.53-5-22.06-1C677.61,1262.72,681,1269.24,687.88,1276.07Z" transform="translate(-176.91 -126.5)"/><path class="cls-40" d="M527.1,1328.21c-1.25-2.41,27.22-11.08,27.67,12.68,0,0,53.34-1.32,27.87-31.05-8.81-10.29-7.91-18.8-7.64-26.72s-5.49-30.94-25.23-28.63c0,0-5.18-2.1-11.63,1.25C523.47,1263.35,490.6,1337,527.1,1328.21Z" transform="translate(-176.91 -126.5)"/><path class="cls-15" d="M614.3,1354.76s3.47-5.28,6.27-5.39,8-1.55,7.56-.52-3.62,1.14-3.93,1.77,4.76,1.55,6.21,1.65,4.87,0,4.77.73-6.16,3.73-10.44,3.32-9.56,1.24-9.56,1.24Z" transform="translate(-176.91 -126.5)"/><path class="cls-4" d="M564.09,1356.47a51.23,51.23,0,0,0,5.31,8c4.12,5.17,10.48,11.14,18.47,12.32a19.89,19.89,0,0,0,11-1.78h0c9.7-4.3,17-14.21,17-14.21a8,8,0,0,0-1.08-7.82s-19.59,4.4-21.46,3.47-12.74-32.28-15.33-36.22-11.43-6-11.43-6Z" transform="translate(-176.91 -126.5)"/><path class="cls-3" d="M569.4,1364.5c4.12,5.17,10.48,11.14,18.47,12.32a19.89,19.89,0,0,0,11-1.78c-.38,0-10.07,1.24-13.93-5.67s-8.2-18.24-14-14.51C568.34,1356.47,568.46,1360.48,569.4,1364.5Z" transform="translate(-176.91 -126.5)"/><path class="cls-17" d="M491,1567.9s-6,5.46-4.81,9.33,6.56,6.46,7.29,11.2,3.64,7.32,6.27,7.32h12.51s1.93-3.33-2.74-4.34-6.42-6.57-6.13-11.74a91.1,91.1,0,0,0-.44-12.05l-9.91-2.3Z" transform="translate(-176.91 -126.5)"/><path class="cls-17" d="M541.6,1570.22s-2.15,23.11.47,24.4l33.58-.07s0-3.88-5.39-4.74-14.87-4-16.47-11S541.6,1570.22,541.6,1570.22Z" transform="translate(-176.91 -126.5)"/><path class="cls-15" d="M517.67,1404.45c6.91-15.5,11.14-20,10.33-24.76-.6-3.58,1.83-66.75,1.83-66.75.82-.25,2.46-.48,3.36-.68a8.44,8.44,0,0,0,6.16-5.35,43.23,43.23,0,0,0,2.09-14.26l.88.18,14.89,3s-.34,4.68-.35,9.09v.11a8.55,8.55,0,0,0,6.18,8.28l3.51,1s5.47,15.6,6.51,31.63-9.94,23,.08,55C583.37,1433.64,513.85,1413,517.67,1404.45Z" transform="translate(-176.91 -126.5)"/><path class="cls-22" d="M557.21,1295.78s-.34,4.68-.35,9.09c-8.33-.23-12.73-7.83-14.54-12Z" transform="translate(-176.91 -126.5)"/><path class="cls-15" d="M560,1300s-19.71.33-19.72-12-2.57-20.5,10-21.22,15,4,16,8S565.11,1299.55,560,1300Z" transform="translate(-176.91 -126.5)"/><path class="cls-40" d="M559.26,1266.48s-5.4,14.4-13.68,16.53-11.87-.09-11.87-.09a23.48,23.48,0,0,0,7.67-13.85S555.19,1259.62,559.26,1266.48Z" transform="translate(-176.91 -126.5)"/><path class="cls-40" d="M557.92,1267.65s4,1.49,5.65,4.41a19.82,19.82,0,0,1,2.66,11.27s4.07-9.79-.5-15.33C560.89,1262.13,557.92,1267.65,557.92,1267.65Z" transform="translate(-176.91 -126.5)"/><path class="cls-48" d="M555.7,1292.34a5,5,0,0,0,4.08,1.66,3.63,3.63,0,0,0,3-2S558.79,1291,555.7,1292.34Z" transform="translate(-176.91 -126.5)"/><path class="cls-4" d="M515.77,1340.89a133.81,133.81,0,0,0,0,15.52c.33,5.61,6,13.13,6.81,15,2,4.67,4.3,5.43,4.3,5.43l17.63,4.32,6.2,1.52,19.55-5.84s8.91-24.86,5.33-38.85a107,107,0,0,0-9-23.7s-15.95,15.62-36.72-1.33Z" transform="translate(-176.91 -126.5)"/><path class="cls-3" d="M520.93,1358.7c.33,5.61.85,10.84,1.65,12.69,2,4.67,4.3,5.43,4.3,5.43l17.63,4.32,7.66-2.25S526.61,1375,529.44,1353Z" transform="translate(-176.91 -126.5)"/><path class="cls-8" d="M569,1380.59s9.68,30.13,10.3,40.39-18.5,145.75-19.27,150.48c-.73,4.46-6.26,7.3-6.26,7.3a8.38,8.38,0,0,1-6.18.47c-5-1.42-6.63-3.12-6.63-3.12s-7.54-96.63-2.88-131.15a545.28,545.28,0,0,0,4.72-64.37Z" transform="translate(-176.91 -126.5)"/><path class="cls-21" d="M528,1379.69s-14.77,19.82-16.14,33.21-2.16,60.45-5.1,73.5-13.71,38.19-13.71,78.92a8.15,8.15,0,0,0,4.58,3.58,40,40,0,0,0,4,1.11,6.34,6.34,0,0,0,7.08-3.36c7.28-14.67,30.49-62,31.68-71.8.84-6.95,8.17-52.95,24.16-79.94,3.83-6.49-2.36-32.25-2.36-32.25Z" transform="translate(-176.91 -126.5)"/><path class="cls-7" d="M556.14,1292.67s.34,1.44,3.94,1.22c0,0,3-.19,2.93-1.78A9.71,9.71,0,0,0,556.14,1292.67Z" transform="translate(-176.91 -126.5)"/><path class="cls-17" d="M570.56,1375.94s-3.88,3.07-11.6,3.23c-9.23.18-32.08-2.35-32.08-2.35a19,19,0,0,0-1,5.83s27.91,7,44.08,1C570,1383.68,572.08,1379.75,570.56,1375.94Z" transform="translate(-176.91 -126.5)"/><path class="cls-7" d="M557,1382.35a4.24,4.24,0,1,1,4.21,4.76A4.52,4.52,0,0,1,557,1382.35Zm1.4,0a2.86,2.86,0,1,0,2.81-3.37A3.13,3.13,0,0,0,558.36,1382.35Z" transform="translate(-176.91 -126.5)"/><rect class="cls-49" x="509.22" y="1348.32" width="37.92" height="51.9" transform="translate(-152.87 2631.03) rotate(-138.95)"/><path class="cls-15" d="M533.33,1381.48s10.48,1.23,10.45,3.71-2.61,7.6-3.91,7.83-8.53-6.91-8.53-6.91Z" transform="translate(-176.91 -126.5)"/><path class="cls-4" d="M529.83,1312.94s-14,1-19.35,14-15.54,34.92-15.54,38.6,5.69,15,36.21,21.55c0,0,3.15-3.32,3-5.94,0,0-19.05-16.37-19-18.28.1-3.62,3.12-8.39,19.85-25.12C539.51,1333.22,529.83,1312.94,529.83,1312.94Z" transform="translate(-176.91 -126.5)"/><path class="cls-33" d="M1881.58,1753.75h-45.45L1709,1753.6c-3.3-9.83-4.88-22.59-2.39-38.81,7.69-50.17,40.82-78.35,84.28-77.72s68.44,26.73,80.79,50.83C1880.33,1704.81,1883.74,1733.2,1881.58,1753.75Z" transform="translate(-176.91 -126.5)"/><path class="cls-33" d="M1048,1674.16s-24.34-14.77-18.35-58.29,31.78-68,65.63-67.42,53.29,23.19,62.9,44.1,10.94,62.06,3.17,74.89S1076.81,1683.83,1048,1674.16Z" transform="translate(-176.91 -126.5)"/><path class="cls-33" d="M1173.13,1538.08s-16-9.72-12.05-38.32,20.88-44.67,43.13-44.31,35,15.24,41.35,29,7.19,40.79,2.08,49.23S1192.1,1544.43,1173.13,1538.08Z" transform="translate(-176.91 -126.5)"/><path class="cls-33" d="M2910.89,1642s-10.33-59-18-46.9S2910.89,1642,2910.89,1642Z" transform="translate(-176.91 -126.5)"/><path class="cls-33" d="M2902.9,1640.69s-18.47-32.11-22.37-28.29S2902.9,1640.69,2902.9,1640.69Z" transform="translate(-176.91 -126.5)"/><path class="cls-33" d="M2915.38,1642.33c.06-.55-2.11-47.07,9.47-42.1S2915.38,1642.33,2915.38,1642.33Z" transform="translate(-176.91 -126.5)"/><path class="cls-33" d="M2886.39,1640.69s18.37-9.64,49.81-1.89c0,0,7.34,3.88,0,6.33S2874.63,1648.58,2886.39,1640.69Z" transform="translate(-176.91 -126.5)"/><path class="cls-33" d="M1470.4,1723.61s-10.33-59-18-46.9S1470.4,1723.61,1470.4,1723.61Z" transform="translate(-176.91 -126.5)"/><path class="cls-33" d="M1462.41,1722.32s-18.48-32.11-22.38-28.28S1462.41,1722.32,1462.41,1722.32Z" transform="translate(-176.91 -126.5)"/><path class="cls-33" d="M1474.88,1724c.07-.55-2.11-47.07,9.48-42.1S1474.88,1724,1474.88,1724Z" transform="translate(-176.91 -126.5)"/><path class="cls-33" d="M1445.9,1722.32s18.37-9.64,49.8-1.88c0,0,7.35,3.87,0,6.32S1434.14,1730.21,1445.9,1722.32Z" transform="translate(-176.91 -126.5)"/><path class="cls-33" d="M881.62,1727.35s-10.32-59-18-46.9S881.62,1727.35,881.62,1727.35Z" transform="translate(-176.91 -126.5)"/><path class="cls-33" d="M873.64,1726.06s-18.48-32.11-22.38-28.29S873.64,1726.06,873.64,1726.06Z" transform="translate(-176.91 -126.5)"/><path class="cls-33" d="M886.11,1727.7c.07-.55-2.11-47.07,9.47-42.1S886.11,1727.7,886.11,1727.7Z" transform="translate(-176.91 -126.5)"/><path class="cls-33" d="M857.13,1726.06s18.37-9.64,49.8-1.89c0,0,7.35,3.88,0,6.33S845.37,1733.94,857.13,1726.06Z" transform="translate(-176.91 -126.5)"/><polygon class="cls-5" points="2344.4 1607.37 1881.83 1607.2 1975.11 1530.34 2437.68 1530.51 2344.4 1607.37"/><path class="cls-50" d="M2724,1412.24s-3.89,5.75-6.1,17.84c-1.94,10.58-3.65,14.49-6.45,16.66s-18.41,8.58-18.41,8.58l1.16,2.73s22.89-3.11,25.46-6.94,12.37-26.42,11.61-31.63S2724,1412.24,2724,1412.24Z" transform="translate(-176.91 -126.5)"/><path class="cls-15" d="M2708.2,1531.87c1.45,1.71-.79,3.93-3.65,6.14s-1.53,2.18-5.07,5.73-5.93,3.58-6.6,3.23.75-2.37,2.16-4.62l.53-.86c1.57-2.56,1.42-5.47,1.88-8.57.43-2.94-1.95-9.73-1.95-9.73l4.68-5s2,6.19,3,8.75a8.22,8.22,0,0,0,3.22,3.43A8.81,8.81,0,0,1,2708.2,1531.87Z" transform="translate(-176.91 -126.5)"/><path class="cls-51" d="M2704.55,1538c-2.85,2.2-1.53,2.18-5.07,5.73s-5.93,3.58-6.6,3.23.75-2.37,2.16-4.62h.06a14.15,14.15,0,0,0,6.18-4.19c2.17-2.6,3.64-6,5.13-7.8a8.81,8.81,0,0,1,1.79,1.5C2709.65,1533.58,2707.41,1535.8,2704.55,1538Z" transform="translate(-176.91 -126.5)"/><path class="cls-19" d="M2734.69,1459s-44.53-3.35-52.91,1.94,15.12,72.19,15.12,72.19a15.51,15.51,0,0,0,4.21-1.94,23.27,23.27,0,0,0,3.34-3.27s2.05-22.4-5.91-49.64c-.87-3,36.16,6.49,42-3.81s1-20.49,1-20.49Z" transform="translate(-176.91 -126.5)"/><path class="cls-15" d="M2685,1545.64c.21,2.23-2.9,2.77-6.5,2.95s-2.51.92-7.44,1.81-6.91-.46-7.27-1.12,2-1.52,4.42-2.56l.92-.4c2.75-1.21,4.3-3.68,6.44-6s4-9.1,4-9.1l6.7-1.43s-1.88,6.24-2.53,8.91a8.22,8.22,0,0,0,.68,4.65A8.81,8.81,0,0,1,2685,1545.64Z" transform="translate(-176.91 -126.5)"/><path class="cls-51" d="M2678.5,1548.59c-3.6.18-2.51.92-7.44,1.81s-6.91-.46-7.27-1.12,2-1.52,4.42-2.56l0,0a14.14,14.14,0,0,0,7.47.09c3.26-.89,6.41-2.84,8.66-3.47a8.81,8.81,0,0,1,.62,2.26C2685.21,1547.87,2682.1,1548.41,2678.5,1548.59Z" transform="translate(-176.91 -126.5)"/><path class="cls-30" d="M2743.42,1461.77s-39.56,1.87-47.74,7.49-19.2,67.72-19.2,67.72a5.46,5.46,0,0,0,2.71.76,22.44,22.44,0,0,0,5.48-1s18.24-28.31,19.33-35.3.52-13.18,3.61-13.47,41.88,3.07,47.32-7.44S2743.42,1461.77,2743.42,1461.77Z" transform="translate(-176.91 -126.5)"/><path class="cls-40" d="M2732.55,1410.5c-1-1.18-2.35-3.39-3.8-7.58.16.41,2.28,5.62,5.14,8.14,10,3.41,19.88,24.64,20,24.55s19.93-16.37,6-30.52c-5.44-5.52-7-11.88-7.86-16.33s-7.71-22.8-19.25-14.58a8.67,8.67,0,0,0-3.17,0,2.55,2.55,0,0,1,1.27.25,10.28,10.28,0,0,0-5.12,2.41C2721.69,1380.7,2723.63,1405.71,2732.55,1410.5Z" transform="translate(-176.91 -126.5)"/><path class="cls-15" d="M2745.08,1405.62a44.56,44.56,0,0,0-7.37,0,23.72,23.72,0,0,0-6.39,1.61c-3.49,1.46-3.12,7.63,4.19,6.48S2745.59,1407.45,2745.08,1405.62Z" transform="translate(-176.91 -126.5)"/><path class="cls-15" d="M2731.63,1410.12c-.05,0-1.05,5.32,3.74,5.1,3.15-.14,9.93-3.94,9.33-6.63-.28-1.28-2.66-4.6-3.14-12.18l-.57.15-9.63,2.58s.43,3.06.63,5.95C2732.16,1407.52,2732.17,1409.83,2731.63,1410.12Z" transform="translate(-176.91 -126.5)"/><path class="cls-50" d="M2731.36,1399.14s.43,3.06.63,5.95c5.45-.52,8-5.69,9-8.53Z" transform="translate(-176.91 -126.5)"/><path class="cls-40" d="M2741.9,1394.88s1.65-5.1,1.35-9c-.21-2.8-4.12-12.37-13.73-8.39a14.07,14.07,0,0,0-5.08,3.57c-1.79,2-4.1,6,1.61,13.75l1.66,2.69Z" transform="translate(-176.91 -126.5)"/><path class="cls-15" d="M2731.11,1403.58s12.59-3,10.59-10.83-1.71-13.46-9.83-11.87-8.92,5-8.89,7.74S2727.78,1404.16,2731.11,1403.58Z" transform="translate(-176.91 -126.5)"/><path class="cls-40" d="M2726.11,1382.16s5.78,8.28,11.4,8.28,7.53-2,7.53-2a15.4,15.4,0,0,1-7.14-7.56S2727.58,1377.13,2726.11,1382.16Z" transform="translate(-176.91 -126.5)"/><path class="cls-40" d="M2727.15,1382.68s-2,2.71-2.15,4.86.65,6.31-.58,6.48c0,0-4.18-5.57-2.18-9.84C2724.36,1379.66,2727.15,1382.68,2727.15,1382.68Z" transform="translate(-176.91 -126.5)"/><path class="cls-52" d="M2716.79,1459.68c1,1.26,4.31,1.64,7.8,2.21,2.75.46,5.64,1,7.69,2.23,4.66,2.74,19.89,12,24.35,11.56,1.73-.16,1.4-3.46.36-7.84-1.65-6.92-5.11-16.54-5.11-20.72a121.89,121.89,0,0,0-1.77-13.84c-.08-.5-.16-1-.25-1.51-2-12-4.78-26.15-4.78-26.15s-3.1,6.76-9.13,6.76-4.63-5.15-4.63-5.15-5.51.65-6.81,2-4.6,7.45-5.25,9.1c0,0-.14,2.11,5.07,3.11a68,68,0,0,0-1.42,9.5c-.11,2.81,1.92,11.61,2.5,17.07a10.14,10.14,0,0,1-.08,4.15c-.4.88-1.71,1.76-3.19,2.63C2719.2,1456.55,2715.55,1458.2,2716.79,1459.68Z" transform="translate(-176.91 -126.5)"/><path class="cls-15" d="M2746.73,1410.08s4.59-2.79,9,2.5-3.15,43.11-9.73,45.06c-7.31,2.15-29.24,2-29.24,2l.92-2.66s22.78-7.34,23.71-8.54S2744.39,1410.69,2746.73,1410.08Z" transform="translate(-176.91 -126.5)"/><path class="cls-52" d="M2745.08,1405.62s9.43.85,12.17,4,3.54,11.51,3.54,11.51-8.31,6.7-18.31,4.1Z" transform="translate(-176.91 -126.5)"/><path class="cls-40" d="M2686.53,1446.08l-.9-8.28,11.7,15.42s-4.89,2.44-5.18,2S2686.53,1446.08,2686.53,1446.08Z" transform="translate(-176.91 -126.5)"/><polygon class="cls-53" points="2527.14 1319.57 2537.94 1336.08 2519.79 1336.08 2509.63 1319.57 2527.14 1319.57"/><polygon class="cls-54" points="2509.63 1319.57 2508.78 1311.38 2514.89 1319.03 2509.63 1319.57"/><polygon class="cls-54" points="2537.39 1335.23 2538.22 1334.64 2527.48 1318.68 2527.14 1319.57 2537.39 1335.23"/><polygon class="cls-55" points="2527.48 1318.68 2510.38 1319.16 2509.63 1319.57 2527.14 1319.57 2527.48 1318.68"/><path class="cls-15" d="M2708,1459.3a7.54,7.54,0,0,1,1.17,0c-1.31-.6-2.62-1.26-2.62-1.26s.58-.6,2.83.19a1.76,1.76,0,0,0,.75.09l-3.14-1.42c.56-.5,2.07-.1,3.24.33a2.58,2.58,0,0,0,2.48-.38l0,0-.15,0c-1.84-.27-2.31-1.32-1.8-1.2s3.59.34,3.59.34a14.41,14.41,0,0,1,4.15,1l-1.54,2.84s-4.43.83-5.59.47l-.33-.12h0l-4-.26S2707.07,1459.42,2708,1459.3Z" transform="translate(-176.91 -126.5)"/><g id="girl_2" data-name="girl 2"><path class="cls-18" d="M2407.65,1570c-.61,0-29.39,16.74-27.14,22s38.78-11.82,38.78-11.82Z" transform="translate(-176.91 -126.5)"/><path class="cls-17" d="M2413.21,1519.65s-.75-7.68,13.84-13.71,21.87,4.86,22.67,8.71,7.6,25.27-9.71,28.56S2413.21,1519.65,2413.21,1519.65Z" transform="translate(-176.91 -126.5)"/><path class="cls-15" d="M2415,1582a35.52,35.52,0,0,0,12.42,5.29c19.14,4.42,26.48-11.76,29.23-22.86a16.37,16.37,0,0,0-6.48-2c-1.39-.16-2.84-.27-4-.33-2.15-1.64-5.35-8.38-6.06-18.84l-.9.24-15.09,4.13s.7,4.79,1,9.32a45.69,45.69,0,0,1,.13,5.75c-1.18.25-2.38,2.44-2.38,2.44v0A97,97,0,0,0,2415,1582Z" transform="translate(-176.91 -126.5)"/><path class="cls-18" d="M2424,1547.58s.7,4.79,1,9.33c8.55-.86,12.52-9,14.06-13.46Z" transform="translate(-176.91 -126.5)"/><path class="cls-15" d="M2421.47,1552.08s20.29-1.12,19.4-13.74,1.12-21.27-11.87-21.09-15.16,5.17-15.89,9.46S2416.17,1552.05,2421.47,1552.08Z" transform="translate(-176.91 -126.5)"/><path class="cls-17" d="M2413.21,1519.65c2.86-4,5.29-3.36,6.7-2.31,10.63-6.89,18.42,1.6,18.42,1.6a24.15,24.15,0,0,0,8.91,13.68s-3.53,2.55-12.21,1a14.44,14.44,0,0,1-7.23-4.26,47.37,47.37,0,0,0,8.84,9.35c-10.5-4-15.6-17.82-16.12-19.29-1.15,1.2-3.42,3.79-4,6.21-.78,3.28-1.56,6.68-3.51,6.59C2413,1532.19,2408.92,1525.68,2413.21,1519.65Z" transform="translate(-176.91 -126.5)"/><path class="cls-49" d="M2462.38,1623.2c1.83-9.37,7.81-46.78,1.83-58.82-2.14-4.33-10.56-4.72-19.8-4.34-2.87,1.85-13.82,8.87-18.32,8l-.25-.06c-2.12-.53-2.43-4-.66-5.32a108.06,108.06,0,0,1-10.75,2.65c-3.21.6-12.9,7.15-12.9,7.15s5.39,5.8,11.82,8.52c-1.09,9.78.53,14.09,10.67,36.67,8.57,19.08-1.15,36.27-1.15,36.27s50.44,40.56,50.73,19.9C2473.81,1658.27,2460,1635.17,2462.38,1623.2Z" transform="translate(-176.91 -126.5)"/><path class="cls-56" d="M2420.37,1698a9.36,9.36,0,0,1-6.75-4.11l-.78-1.17c-5.74-8.69-8-35.32-20.89-63.68-3.15-6.9-14.44-8.14-17.52-16,0,0-7.58-25.3,14.51-26s59.14,70.39,59.73,77.85C2449.24,1672.14,2463.27,1702.85,2420.37,1698Z" transform="translate(-176.91 -126.5)"/><path class="cls-57" d="M2332.59,1697.43H2364s1.18-5-.89-8.43c-1.82-3-1.12-4.74.23-7.23a12.19,12.19,0,0,1-5.29,1,11.1,11.1,0,0,1-4.68-1.64c-1.35,1.54-7.14,8.11-8.95,9.41C2342.38,1692,2333.22,1691.48,2332.59,1697.43Z" transform="translate(-176.91 -126.5)"/><path class="cls-57" d="M2459.07,1574.18s4.09,37.23-22.45,45-34.06-34.25-12.64-37.28S2459.07,1574.18,2459.07,1574.18Z" transform="translate(-176.91 -126.5)"/><path class="cls-8" d="M2373.71,1594.37c-1.89,14.19-9.28,59-22.32,80.83-4.2,7,10.59,11,10.67,11,2-.51,5.29-3.68,6.81-5.05,10.59-9.54,32.08-36.56,32.08-58.21,0-10.56.18-30.73-7.49-35.86C2388.73,1583.9,2374.46,1588.74,2373.71,1594.37Z" transform="translate(-176.91 -126.5)"/><path class="cls-21" d="M2439.11,1697.43s-1.16-1.62-3.19-4.7c-2.42-3.66-5.1-10.87-8.34-20.11-3.41-9.69-7.46-21.62-12.51-34q-2.34-5.76-5-11.59c-3.15-6.9-11.8-6-14.88-13.75,0,0-12-27.06,10.07-27.81s64,72.39,66.47,79.47C2474.38,1672.66,2487.27,1704.86,2439.11,1697.43Z" transform="translate(-176.91 -126.5)"/><path class="cls-49" d="M2355.66,1697.43h31.44s1.17-5-.89-8.43c-1.83-3-1.13-4.74.23-7.23a12.24,12.24,0,0,1-5.3,1,11.11,11.11,0,0,1-4.67-1.64c-1.36,1.54-7.15,8.11-9,9.41C2365.46,1692,2356.3,1691.48,2355.66,1697.43Z" transform="translate(-176.91 -126.5)"/><path class="cls-8" d="M2427.58,1672.62c-3.41-9.69-7.46-21.62-12.51-34,1.32-9.41,4.17-17.63,8.95-20.95C2424,1617.64,2435.64,1653.63,2427.58,1672.62Z" transform="translate(-176.91 -126.5)"/><path class="cls-21" d="M2392.06,1593.37c-1.89,14.19-4.56,60-17.6,81.83-4.2,7,10.6,11,10.67,11,2-.51,5.29-3.68,6.82-5.05,10.58-9.54,32.07-36.56,32.07-58.21,0-10.56-12.39-29.88-20.07-35A7.72,7.72,0,0,0,2392.06,1593.37Z" transform="translate(-176.91 -126.5)"/><path class="cls-15" d="M2456.6,1564.38s-44.61,16.43-51.32,16.09c-4.33-.22-40.35-12.88-40.35-12.88l-3.23,6.12s35.05,22.53,44.69,22.42c19-.22,51.13-11.9,54.76-14.2S2467.13,1566.7,2456.6,1564.38Z" transform="translate(-176.91 -126.5)"/><path class="cls-15" d="M2364.93,1567.59s-3.23-5-6.45-5.12-8.78,2.19-10.68,2.56-7.32,2.12-5.71,4.76,9.07,3.22,12.29,2.63,7.32,1.29,7.32,1.29Z" transform="translate(-176.91 -126.5)"/><path class="cls-15" d="M2359.36,1562.62s-5.12-2.35-6.59-2.78-1.17,0-.73,1.39,3.07,2.71,3.07,3.15S2359.36,1562.62,2359.36,1562.62Z" transform="translate(-176.91 -126.5)"/><path class="cls-7" d="M2417.67,1544.82s1.92-.76,7.32-.32c0,0-.29,2.1-4.27,2.31A3.18,3.18,0,0,1,2417.67,1544.82Z" transform="translate(-176.91 -126.5)"/><path class="cls-49" d="M2433.62,1572.48s4,12.63,17.69,15.5c0,0,22.63-7,11.36-22.39C2462.67,1565.59,2451.53,1557.32,2433.62,1572.48Z" transform="translate(-176.91 -126.5)"/><path class="cls-17" d="M2441.79,1506.71s5.2-7.35,18.52-3.53,6.58,20.21,11,24.8,10.41,14,0,17.89-19,4.62-16.38-9.77.92-29.24-11.63-26Z" transform="translate(-176.91 -126.5)"/></g><g id="girl_2-2" data-name="girl 2"><path class="cls-58" d="M2228.81,1671.42c1.11-2.59,18-46.8,31.05-46.8,7,0,13.27,1.61,11.79,13.15s-14.37,74.13-22.48,73.24S2228.81,1671.42,2228.81,1671.42Z" transform="translate(-176.91 -126.5)"/><path class="cls-58" d="M2276.2,1701.89c-.24,1.89-.65,5.82-.2,8.06a1.33,1.33,0,0,0,1.3,1.06h21.07a1.32,1.32,0,0,0,1.15-2c-1.1-1.92-3-4.69-5.06-5.56a37.77,37.77,0,0,1-5.93-3.22,1.28,1.28,0,0,0-.81-.21l-10.3.69A1.3,1.3,0,0,0,2276.2,1701.89Z" transform="translate(-176.91 -126.5)"/><path class="cls-17" d="M2282.24,1632.47s6.55,63.1,7.29,68.35c0,0-10.14,2-13.18,0s-15.75-35.9-15.48-42S2282.24,1632.47,2282.24,1632.47Z" transform="translate(-176.91 -126.5)"/><path class="cls-17" d="M2239.31,1671.42c1.11-2.59,18-46.8,31.05-46.8,7,0,13.27,1.61,11.8,13.15s-14.38,74.13-22.48,73.24S2239.31,1671.42,2239.31,1671.42Z" transform="translate(-176.91 -126.5)"/><path class="cls-17" d="M2189.52,1680.54s-5,28.87,16.35,30.47,50.49,1.26,53.81,0,13.82-26.32-6-31.29S2189.52,1680.54,2189.52,1680.54Z" transform="translate(-176.91 -126.5)"/><path class="cls-7" d="M2250.72,1641c1.74-8.9,7.41-44.44,1.74-55.88-2-4.11-10-4.48-18.81-4.12-2.73,1.77-13.13,8.43-17.41,7.6,0,0-38.25,22.4-28.61,43.85,4.41,9.82,2.82,24.65.44,36.19a18.69,18.69,0,0,0,14,22c23,5.42,51.46,2.46,51.65-10.92C2253.89,1665,2248.49,1652.37,2250.72,1641Z" transform="translate(-176.91 -126.5)"/><path class="cls-15" d="M2240,1603.5s20,32.82,33.84,39.46c0,0,6.35-10-5.53-26.82s-16.42-34.5-20-33S2240,1603.5,2240,1603.5Z" transform="translate(-176.91 -126.5)"/><path class="cls-15" d="M2270.36,1624.62s11-.18,13.73,2.58-1.1,16.86-10.22,15.76Z" transform="translate(-176.91 -126.5)"/><path class="cls-7" d="M2247.39,1581.77s5.39.1,10.4,11.57c0,0-5.21,20.32-16,18.52S2247.39,1581.77,2247.39,1581.77Z" transform="translate(-176.91 -126.5)"/><path class="cls-17" d="M2228.51,1528.89s-12.94-2.46-19.39,2.25c-11.68,8.52-12.3,37.93-16.68,42.31s-14.93,2.51-15.87,25.17,4.2,24.55-1.92,34.67,2.59,20.24,2.59,20.24-3.57-5.58-2-9.61c0,0,7.62,11,12.8,14,14,8.37,29.67,5.42,37.35.25a9.59,9.59,0,0,1,3.76-1.44c3.81-.63,11.82-5.65,8.89-37.44-1.62-17.45,9.48-34.88,4.85-42.47a16.73,16.73,0,0,1,2.32,6.86,9,9,0,0,0-2-10.28c-4.82-5,5.65-15.23,4.1-27.11C2246.17,1538.18,2240.44,1529.24,2228.51,1528.89Z" transform="translate(-176.91 -126.5)"/></g><path class="cls-33" d="M748.3,1753.25H384.07a121.43,121.43,0,0,1-114.81-81.86c-1.45-4.2-2.79-8.17-4-11.79-6.9-21.38-14.49-45.93-22.22-73,0,0,59.18-15.61,124.08,17.43s42.86,85.7,116.34,75.9,188.3-22,228.86,12.25C734.23,1710.65,744,1734.88,748.3,1753.25Z" transform="translate(-176.91 -126.5)"/><path class="cls-33" d="M669,1686.63s24.32-39.19,39.11-33.38-33,33.38-33,33.38Z" transform="translate(-176.91 -126.5)"/><path class="cls-33" d="M658.29,1677.44s4.28-26,14.69-24.77-5.2,24.77-5.2,24.77Z" transform="translate(-176.91 -126.5)"/><path class="cls-33" d="M362.23,1619.91s34.29-41.05,45.93-38.29S368,1621.26,368,1621.26Z" transform="translate(-176.91 -126.5)"/><path class="cls-33" d="M355.35,1608.5s5.3-28.17,14.69-27.76-7.34,27.76-7.34,27.76Z" transform="translate(-176.91 -126.5)"/><path class="cls-33" d="M380,1621.26s51.59-10.82,53.63,0S380,1621.26,380,1621.26Z" transform="translate(-176.91 -126.5)"/><path class="cls-33" d="M2022.75,1573.4c0,14.81-128.18,26.81-286.3,26.81s-286.3-12-286.3-26.81,128.18-26.82,286.3-26.82S2022.75,1558.59,2022.75,1573.4Z" transform="translate(-176.91 -126.5)"/><path class="cls-59" d="M1627.93,1575s-19.83-11.18-8.93-39.37,35-56.28,83.71-59.87,75.91-1,100.73,17.34,59,44.09,48.64,69.88S1668.1,1583.53,1627.93,1575Z" transform="translate(-176.91 -126.5)"/><path class="cls-40" d="M1416,1280.1s-9.8,1-15.35,9.32c-3.85,5.8-3.16,19.43-8.39,24.11s-4.16,14,2.44,17.84,41.63,6.61,52.53-2.64-3.78-14.4-3-30C1444.67,1291.48,1434.44,1278,1416,1280.1Z" transform="translate(-176.91 -126.5)"/><path class="cls-50" d="M1382.73,1432.33s-5.32,5.32-6.12,7.08-1.94,6.16,2,6.51,5.56-.24,6.12-2.14,1.68-8.21,1.68-8.21Z" transform="translate(-176.91 -126.5)"/><path class="cls-15" d="M1401.57,1341.15s-10.23,2.8-13.16,16.22-.13,42.15-2.69,51.15S1380,1434,1380,1434s3.61,2.9,7.43,2.71c0,0,19.54-28.62,19.72-36.36S1401.57,1341.15,1401.57,1341.15Z" transform="translate(-176.91 -126.5)"/><path class="cls-17" d="M1479.36,1602.33s6.15,5.61,5,9.6-6.75,6.65-7.5,11.53-3.75,7.54-6.46,7.54h-12.88s-2-3.43,2.82-4.47,6.61-6.76,6.31-12.08a93.84,93.84,0,0,1,.45-12.42l10.21-2.36Z" transform="translate(-176.91 -126.5)"/><path class="cls-17" d="M1427.27,1604.71s2.21,23.79-.49,25.12l-34.58-.07s0-4,5.56-4.87,15.31-4.14,17-11.39S1427.27,1604.71,1427.27,1604.71Z" transform="translate(-176.91 -126.5)"/><path class="cls-15" d="M1451.91,1434c-7.11-16-11.47-20.54-10.64-25.49.62-3.69-1.88-68.73-1.88-68.73-.85-.26-2.54-.5-3.46-.71a8.64,8.64,0,0,1-6.34-5.51,44.07,44.07,0,0,1-2.15-14.67l-.92.18-15.32,3s.35,4.82.36,9.37v.11a8.8,8.8,0,0,1-6.36,8.52l-3.62,1s-5.63,16.07-6.71,32.57,10.24,23.68-.08,56.66C1384.25,1464.07,1455.84,1442.83,1451.91,1434Z" transform="translate(-176.91 -126.5)"/><path class="cls-22" d="M1411.2,1322.11s.35,4.82.36,9.37c8.57-.25,13.11-8.07,15-12.4Z" transform="translate(-176.91 -126.5)"/><path class="cls-15" d="M1408.33,1326.41s20.29.34,20.31-12.3,2.64-21.11-10.31-21.86-15.48,4.07-16.51,8.29S1403.06,1326,1408.33,1326.41Z" transform="translate(-176.91 -126.5)"/><path class="cls-40" d="M1409.08,1291.94s5.56,14.83,14.09,17,12.22-.09,12.22-.09a24.17,24.17,0,0,1-7.9-14.26S1413.28,1284.88,1409.08,1291.94Z" transform="translate(-176.91 -126.5)"/><path class="cls-40" d="M1410.46,1293.14s-4.12,1.54-5.81,4.55a20.48,20.48,0,0,0-2.75,11.6s-4.18-10.08.52-15.78C1407.41,1287.47,1410.46,1293.14,1410.46,1293.14Z" transform="translate(-176.91 -126.5)"/><path class="cls-48" d="M1412.75,1318.57a5.11,5.11,0,0,1-4.2,1.71,3.74,3.74,0,0,1-3.13-2.06S1409.57,1317.22,1412.75,1318.57Z" transform="translate(-176.91 -126.5)"/><path class="cls-7" d="M1449.15,1368.56s-.08,9.62-.59,18.34c-.35,5.78-.88,11.16-1.71,13.08-2.08,4.8-4.43,5.58-4.43,5.58l-18.15,4.45-6.38,1.56-20.14-6s-9.16-25.59-5.48-40a110.72,110.72,0,0,1,9.3-24.41s16.43,16.08,37.82-1.36Z" transform="translate(-176.91 -126.5)"/><path class="cls-8" d="M1399,1409.44s-10,31-10.6,41.6,19,150.08,19.84,155c.75,4.59,6.45,7.51,6.45,7.51a8.6,8.6,0,0,0,6.36.49c5.19-1.46,6.83-3.22,6.83-3.22s7.76-99.5,3-135a563.82,563.82,0,0,1-4.86-66.29Z" transform="translate(-176.91 -126.5)"/><path class="cls-21" d="M1441.27,1408.52s15.21,20.4,16.63,34.2,2.22,62.24,5.24,75.68,14.12,39.33,14.12,81.27a8.35,8.35,0,0,1-4.72,3.68,38.11,38.11,0,0,1-4.14,1.15,6.53,6.53,0,0,1-7.29-3.46c-7.51-15.11-31.4-63.83-32.63-73.94-.87-7.16-8.41-54.53-24.87-82.32-3.95-6.67,2.42-33.21,2.42-33.21Z" transform="translate(-176.91 -126.5)"/><path class="cls-7" d="M1412.3,1318.91s-.35,1.49-4.06,1.26c0,0-3.11-.19-3-1.83A10,10,0,0,1,1412.3,1318.91Z" transform="translate(-176.91 -126.5)"/><path class="cls-17" d="M1397.44,1404.65s4,3.17,12,3.33c9.49.19,33-2.42,33-2.42a19.42,19.42,0,0,1,1,6s-28.74,7.25-45.4,1.06C1398,1412.62,1395.89,1408.58,1397.44,1404.65Z" transform="translate(-176.91 -126.5)"/><rect class="cls-40" x="1439.94" y="1432.28" width="46.27" height="25.93" transform="translate(-585.53 466.66) rotate(-20.17)"/><path class="cls-60" d="M1436.89,1441.05s14,8.73,27.4,3.12,16-19.08,16-19.08Z" transform="translate(-176.91 -126.5)"/><path class="cls-61" d="M1443.27,1441a2.51,2.51,0,1,1,2.14-2.84A2.5,2.5,0,0,1,1443.27,1441Zm-.58-4.15a1.68,1.68,0,1,0,1.89,1.43A1.68,1.68,0,0,0,1442.69,1436.86Z" transform="translate(-176.91 -126.5)"/><path class="cls-15" d="M1471.61,1443.48a20.51,20.51,0,0,0,.72,5.45c.69,1.77,2.78,4.13,3.48,4.13s-.64-3.69-.29-3.61,2,6.14,3.25,6.29,2.32-6.81,1.69-9.54-3.4-6-3.4-6Z" transform="translate(-176.91 -126.5)"/><path class="cls-15" d="M1439.39,1339.79a24.72,24.72,0,0,1,17.27,13.42c4.66,9.2,7.87,38.14,11.16,47.25,3.15,8.71,6.39,23.68,8.82,37.18.19,1,.42,2.55.42,2.55l-5.45,3.29c.52,1-1.81-3.81-2.33-5-8.49-18.68-10.91-27.21-15.94-41.48-1.91-5.42-8-17.41-10.42-21.36-5.91-9.58-10.52-13.28-7.19-24Z" transform="translate(-176.91 -126.5)"/><path class="cls-50" d="M1380.66,1434.47s-3.69,1.86-4.56,3.1-2.44,2.88-1.48,3.08,3.79-1.92,3.79-1.92Z" transform="translate(-176.91 -126.5)"/><path class="cls-15" d="M1376.63,1442.24s3.34-2.45,5.42-1.58,2.23,4.14,1.59,4.82-5.87,1.44-7.26-.4S1376.63,1442.24,1376.63,1442.24Z" transform="translate(-176.91 -126.5)"/><path class="cls-7" d="M1405.2,1340.11a51.15,51.15,0,0,0,30.73-1s11.14.49,16.14,6.3,11,21.18,11,21.18-5.78,12.1-21.83,12.33-49.57-10.19-49.57-10.19a9.28,9.28,0,0,1-7.7-1.21s3.51-16.75,8.75-21.53S1405.2,1340.11,1405.2,1340.11Z" transform="translate(-176.91 -126.5)"/><path class="cls-62" d="M1441.83,1436.71c-.08-.4-8.41-40.9-11.15-63.94a96.72,96.72,0,0,1,0-26.08c.89-5.69,3-8.27,3.1-8.39l.88.13c0,.11-5.46,11.39-2.75,34.19,2.72,23,11,63.43,11.13,63.83Z" transform="translate(-176.91 -126.5)"/></g></svg>